G75*
%MOIN*%
%OFA0B0*%
%FSLAX24Y24*%
%IPPOS*%
%LPD*%
%AMOC8*
5,1,8,0,0,1.08239X$1,22.5*
%
%ADD10R,0.0630X0.0512*%
%ADD11R,0.0512X0.0630*%
%ADD12R,0.0220X0.0500*%
%ADD13R,0.0500X0.0220*%
%ADD14R,0.0512X0.0591*%
%ADD15R,0.1417X0.1417*%
D10*
X011160Y010786D03*
X011160Y011534D03*
X012160Y011534D03*
X012160Y010786D03*
X013160Y010034D03*
X013160Y009286D03*
D11*
X008534Y011410D03*
X007786Y011410D03*
D12*
X006012Y012100D03*
X005697Y012100D03*
X005382Y012100D03*
X005067Y012100D03*
X004753Y012100D03*
X004438Y012100D03*
X004123Y012100D03*
X003808Y012100D03*
X003808Y008720D03*
X004123Y008720D03*
X004438Y008720D03*
X004753Y008720D03*
X005067Y008720D03*
X005382Y008720D03*
X005697Y008720D03*
X006012Y008720D03*
D13*
X006600Y009308D03*
X006600Y009623D03*
X006600Y009938D03*
X006600Y010253D03*
X006600Y010567D03*
X006600Y010882D03*
X006600Y011197D03*
X006600Y011512D03*
X003220Y011512D03*
X003220Y011197D03*
X003220Y010882D03*
X003220Y010567D03*
X003220Y010253D03*
X003220Y009938D03*
X003220Y009623D03*
X003220Y009308D03*
D14*
X005286Y007910D03*
X006034Y007910D03*
X005034Y013035D03*
X004286Y013035D03*
D15*
X004695Y004910D03*
X016625Y004910D03*
M02*
