G75*
%MOIN*%
%OFA0B0*%
%FSLAX24Y24*%
%IPPOS*%
%LPD*%
%AMOC8*
5,1,8,0,0,1.08239X$1,22.5*
%
%ADD10C,0.0000*%
%ADD11R,0.0433X0.0394*%
%ADD12R,0.0394X0.0433*%
%ADD13R,0.0220X0.0500*%
%ADD14R,0.0500X0.0220*%
%ADD15R,0.0476X0.0476*%
%ADD16C,0.0476*%
%ADD17R,0.1417X0.1417*%
%ADD18R,0.0740X0.0740*%
%ADD19OC8,0.0740*%
%ADD20C,0.0120*%
%ADD21C,0.0100*%
%ADD22C,0.0357*%
%ADD23C,0.0160*%
D10*
X002589Y006965D02*
X002589Y013855D01*
X002591Y014007D01*
X002597Y014159D01*
X002607Y014311D01*
X002620Y014462D01*
X002638Y014613D01*
X002659Y014764D01*
X002685Y014914D01*
X002714Y015063D01*
X002747Y015212D01*
X002784Y015359D01*
X002824Y015506D01*
X002869Y015651D01*
X002917Y015795D01*
X002969Y015938D01*
X003024Y016080D01*
X003083Y016220D01*
X003146Y016359D01*
X003212Y016496D01*
X003282Y016631D01*
X003355Y016764D01*
X003432Y016895D01*
X003512Y017025D01*
X003595Y017152D01*
X003681Y017277D01*
X003771Y017400D01*
X003864Y017520D01*
X003960Y017638D01*
X004059Y017754D01*
X004161Y017867D01*
X004265Y017977D01*
X004373Y018085D01*
X004483Y018189D01*
X004596Y018291D01*
X004712Y018390D01*
X004830Y018486D01*
X004950Y018579D01*
X005073Y018669D01*
X005198Y018755D01*
X005325Y018838D01*
X005455Y018918D01*
X005586Y018995D01*
X005719Y019068D01*
X005854Y019138D01*
X005991Y019204D01*
X006130Y019267D01*
X006270Y019326D01*
X006412Y019381D01*
X006555Y019433D01*
X006699Y019481D01*
X006844Y019526D01*
X006991Y019566D01*
X007138Y019603D01*
X007287Y019636D01*
X007436Y019665D01*
X007586Y019691D01*
X007737Y019712D01*
X007888Y019730D01*
X008039Y019743D01*
X008191Y019753D01*
X008343Y019759D01*
X008495Y019761D01*
X008495Y019760D02*
X012825Y019760D01*
X012825Y019761D02*
X012977Y019759D01*
X013129Y019753D01*
X013281Y019743D01*
X013432Y019730D01*
X013583Y019712D01*
X013734Y019691D01*
X013884Y019665D01*
X014033Y019636D01*
X014182Y019603D01*
X014329Y019566D01*
X014476Y019526D01*
X014621Y019481D01*
X014765Y019433D01*
X014908Y019381D01*
X015050Y019326D01*
X015190Y019267D01*
X015329Y019204D01*
X015466Y019138D01*
X015601Y019068D01*
X015734Y018995D01*
X015865Y018918D01*
X015995Y018838D01*
X016122Y018755D01*
X016247Y018669D01*
X016370Y018579D01*
X016490Y018486D01*
X016608Y018390D01*
X016724Y018291D01*
X016837Y018189D01*
X016947Y018085D01*
X017055Y017977D01*
X017159Y017867D01*
X017261Y017754D01*
X017360Y017638D01*
X017456Y017520D01*
X017549Y017400D01*
X017639Y017277D01*
X017725Y017152D01*
X017808Y017025D01*
X017888Y016895D01*
X017965Y016764D01*
X018038Y016631D01*
X018108Y016496D01*
X018174Y016359D01*
X018237Y016220D01*
X018296Y016080D01*
X018351Y015938D01*
X018403Y015795D01*
X018451Y015651D01*
X018496Y015506D01*
X018536Y015359D01*
X018573Y015212D01*
X018606Y015063D01*
X018635Y014914D01*
X018661Y014764D01*
X018682Y014613D01*
X018700Y014462D01*
X018713Y014311D01*
X018723Y014159D01*
X018729Y014007D01*
X018731Y013855D01*
X018731Y006965D01*
X018729Y006813D01*
X018723Y006661D01*
X018713Y006509D01*
X018700Y006358D01*
X018682Y006207D01*
X018661Y006056D01*
X018635Y005906D01*
X018606Y005757D01*
X018573Y005608D01*
X018536Y005461D01*
X018496Y005314D01*
X018451Y005169D01*
X018403Y005025D01*
X018351Y004882D01*
X018296Y004740D01*
X018237Y004600D01*
X018174Y004461D01*
X018108Y004324D01*
X018038Y004189D01*
X017965Y004056D01*
X017888Y003925D01*
X017808Y003795D01*
X017725Y003668D01*
X017639Y003543D01*
X017549Y003420D01*
X017456Y003300D01*
X017360Y003182D01*
X017261Y003066D01*
X017159Y002953D01*
X017055Y002843D01*
X016947Y002735D01*
X016837Y002631D01*
X016724Y002529D01*
X016608Y002430D01*
X016490Y002334D01*
X016370Y002241D01*
X016247Y002151D01*
X016122Y002065D01*
X015995Y001982D01*
X015865Y001902D01*
X015734Y001825D01*
X015601Y001752D01*
X015466Y001682D01*
X015329Y001616D01*
X015190Y001553D01*
X015050Y001494D01*
X014908Y001439D01*
X014765Y001387D01*
X014621Y001339D01*
X014476Y001294D01*
X014329Y001254D01*
X014182Y001217D01*
X014033Y001184D01*
X013884Y001155D01*
X013734Y001129D01*
X013583Y001108D01*
X013432Y001090D01*
X013281Y001077D01*
X013129Y001067D01*
X012977Y001061D01*
X012825Y001059D01*
X012825Y001060D02*
X008495Y001060D01*
X008495Y001059D02*
X008343Y001061D01*
X008191Y001067D01*
X008039Y001077D01*
X007888Y001090D01*
X007737Y001108D01*
X007586Y001129D01*
X007436Y001155D01*
X007287Y001184D01*
X007138Y001217D01*
X006991Y001254D01*
X006844Y001294D01*
X006699Y001339D01*
X006555Y001387D01*
X006412Y001439D01*
X006270Y001494D01*
X006130Y001553D01*
X005991Y001616D01*
X005854Y001682D01*
X005719Y001752D01*
X005586Y001825D01*
X005455Y001902D01*
X005325Y001982D01*
X005198Y002065D01*
X005073Y002151D01*
X004950Y002241D01*
X004830Y002334D01*
X004712Y002430D01*
X004596Y002529D01*
X004483Y002631D01*
X004373Y002735D01*
X004265Y002843D01*
X004161Y002953D01*
X004059Y003066D01*
X003960Y003182D01*
X003864Y003300D01*
X003771Y003420D01*
X003681Y003543D01*
X003595Y003668D01*
X003512Y003795D01*
X003432Y003925D01*
X003355Y004056D01*
X003282Y004189D01*
X003212Y004324D01*
X003146Y004461D01*
X003083Y004600D01*
X003024Y004740D01*
X002969Y004882D01*
X002917Y005025D01*
X002869Y005169D01*
X002824Y005314D01*
X002784Y005461D01*
X002747Y005608D01*
X002714Y005757D01*
X002685Y005906D01*
X002659Y006056D01*
X002638Y006207D01*
X002620Y006358D01*
X002607Y006509D01*
X002597Y006661D01*
X002591Y006813D01*
X002589Y006965D01*
D11*
X004575Y007785D03*
X005245Y007785D03*
X005245Y013035D03*
X004575Y013035D03*
X011160Y011495D03*
X011160Y010825D03*
X012160Y010825D03*
X012160Y011495D03*
X013160Y009995D03*
X013160Y009325D03*
X016660Y009825D03*
X016660Y010495D03*
D12*
X007495Y012410D03*
X006825Y012410D03*
D13*
X006012Y012100D03*
X005697Y012100D03*
X005382Y012100D03*
X005067Y012100D03*
X004753Y012100D03*
X004438Y012100D03*
X004123Y012100D03*
X003808Y012100D03*
X003808Y008720D03*
X004123Y008720D03*
X004438Y008720D03*
X004753Y008720D03*
X005067Y008720D03*
X005382Y008720D03*
X005697Y008720D03*
X006012Y008720D03*
D14*
X006600Y009308D03*
X006600Y009623D03*
X006600Y009938D03*
X006600Y010253D03*
X006600Y010567D03*
X006600Y010882D03*
X006600Y011197D03*
X006600Y011512D03*
X003220Y011512D03*
X003220Y011197D03*
X003220Y010882D03*
X003220Y010567D03*
X003220Y010253D03*
X003220Y009938D03*
X003220Y009623D03*
X003220Y009308D03*
D15*
X008160Y008410D03*
D16*
X009160Y008410D03*
X010160Y008410D03*
X011160Y008410D03*
X012160Y008410D03*
X013160Y008410D03*
X013160Y012410D03*
X012160Y012410D03*
X011160Y012410D03*
X010160Y012410D03*
X009160Y012410D03*
X008160Y012410D03*
D17*
X004695Y004910D03*
X016625Y004910D03*
D18*
X015660Y011160D03*
D19*
X015660Y010160D03*
X015660Y009160D03*
X014660Y009160D03*
X014660Y010160D03*
X014660Y011160D03*
D20*
X017556Y003910D02*
X003764Y003910D01*
X003660Y004072D02*
X003660Y008330D01*
X003640Y008330D02*
X004565Y008330D01*
X004581Y008321D01*
X004621Y008310D01*
X004753Y008310D01*
X004877Y008310D01*
X004877Y008299D01*
X005054Y008122D01*
X004970Y008122D01*
X004923Y008075D01*
X004920Y008080D01*
X004890Y008110D01*
X004854Y008131D01*
X004813Y008142D01*
X004614Y008142D01*
X004614Y007823D01*
X004537Y007823D01*
X004537Y007747D01*
X004199Y007747D01*
X004199Y007567D01*
X004210Y007526D01*
X004231Y007490D01*
X004261Y007460D01*
X004297Y007439D01*
X004338Y007428D01*
X004537Y007428D01*
X004537Y007747D01*
X004614Y007747D01*
X004614Y007428D01*
X004813Y007428D01*
X004854Y007439D01*
X004890Y007460D01*
X004920Y007490D01*
X004923Y007495D01*
X004970Y007448D01*
X005055Y007448D01*
X005055Y006573D01*
X004706Y006225D01*
X004595Y006114D01*
X004595Y005759D01*
X003929Y005759D01*
X003847Y005677D01*
X003847Y004143D01*
X003929Y004061D01*
X005462Y004061D01*
X005544Y004143D01*
X005544Y005677D01*
X005462Y005759D01*
X004975Y005759D01*
X004975Y005956D01*
X005435Y006416D01*
X005435Y007448D01*
X005519Y007448D01*
X005601Y007530D01*
X005601Y007970D01*
X005614Y007970D01*
X005725Y008081D01*
X005887Y008244D01*
X005887Y008330D01*
X006180Y008330D01*
X006262Y008412D01*
X006262Y008520D01*
X007767Y008520D01*
X007782Y008505D01*
X007782Y008114D01*
X007864Y008032D01*
X008456Y008032D01*
X008538Y008114D01*
X008538Y008706D01*
X008456Y008788D01*
X008065Y008788D01*
X007933Y008920D01*
X006262Y008920D01*
X006262Y009028D01*
X006180Y009110D01*
X005257Y009110D01*
X005257Y010206D01*
X004943Y010521D01*
X004943Y011690D01*
X005067Y011690D01*
X005067Y012100D01*
X005067Y012100D01*
X005067Y011690D01*
X005199Y011690D01*
X005239Y011701D01*
X005255Y011710D01*
X006180Y011710D01*
X006262Y011792D01*
X006262Y011910D01*
X006266Y011910D01*
X006345Y011831D01*
X006414Y011762D01*
X006292Y011762D01*
X006210Y011680D01*
X006210Y009140D01*
X006292Y009058D01*
X006908Y009058D01*
X006958Y009108D01*
X008842Y009108D01*
X008842Y009097D01*
X008890Y008980D01*
X008960Y008910D01*
X007943Y008910D01*
X007850Y008720D02*
X008160Y008410D01*
X008160Y008788D02*
X008160Y009108D01*
X007850Y008720D02*
X006012Y008720D01*
X006160Y008330D02*
X006160Y001841D01*
X006008Y001910D02*
X015312Y001910D01*
X015160Y001841D02*
X015160Y008910D01*
X015189Y008910D01*
X015174Y008925D02*
X015449Y008650D01*
X015871Y008650D01*
X016170Y008949D01*
X016170Y008970D01*
X016489Y008970D01*
X016600Y009081D01*
X016850Y009331D01*
X016850Y009489D01*
X016935Y009489D01*
X017017Y009571D01*
X017017Y010080D01*
X016937Y010160D01*
X017017Y010240D01*
X017017Y010749D01*
X016935Y010831D01*
X016385Y010831D01*
X016321Y010767D01*
X016239Y010850D01*
X016170Y010850D01*
X016170Y011588D01*
X016088Y011670D01*
X015232Y011670D01*
X015150Y011588D01*
X015150Y011391D01*
X014871Y011670D01*
X014449Y011670D01*
X014150Y011371D01*
X014150Y010949D01*
X014439Y010660D01*
X014150Y010371D01*
X014150Y009949D01*
X014425Y009674D01*
X014130Y009380D01*
X014130Y009200D01*
X014620Y009200D01*
X014620Y009120D01*
X014130Y009120D01*
X014130Y008940D01*
X014440Y008630D01*
X014620Y008630D01*
X014620Y009120D01*
X014700Y009120D01*
X014700Y008630D01*
X014880Y008630D01*
X015174Y008925D01*
X014700Y008910D02*
X014620Y008910D01*
X014660Y009120D02*
X014660Y001635D01*
X014798Y001676D02*
X014025Y001449D01*
X013228Y001334D01*
X012825Y001320D01*
X008495Y001320D01*
X008092Y001334D01*
X007295Y001449D01*
X006522Y001676D01*
X005789Y002010D01*
X005111Y002446D01*
X004503Y002973D01*
X003975Y003582D01*
X003540Y004260D01*
X003205Y004992D01*
X002978Y005765D01*
X002864Y006562D01*
X002849Y006965D01*
X002849Y007017D01*
X002849Y009121D01*
X002912Y009058D01*
X003528Y009058D01*
X003610Y009140D01*
X003610Y009552D01*
X003640Y009480D01*
X003730Y009390D01*
X003847Y009342D01*
X003973Y009342D01*
X004090Y009390D01*
X004180Y009480D01*
X004228Y009597D01*
X004228Y009723D01*
X004180Y009840D01*
X004110Y009910D01*
X004180Y009980D01*
X004228Y010097D01*
X004228Y010223D01*
X004180Y010340D01*
X004179Y010342D01*
X004223Y010342D01*
X004340Y010390D01*
X004430Y010480D01*
X004478Y010597D01*
X004478Y010723D01*
X004430Y010840D01*
X004340Y010930D01*
X004223Y010978D01*
X004097Y010978D01*
X003980Y010930D01*
X003890Y010840D01*
X003856Y010757D01*
X003610Y010757D01*
X003610Y011680D01*
X003528Y011762D01*
X002912Y011762D01*
X002849Y011699D01*
X002849Y013855D01*
X002864Y014258D01*
X002978Y015055D01*
X003205Y015828D01*
X003540Y016560D01*
X003975Y017238D01*
X004503Y017847D01*
X005111Y018374D01*
X005789Y018810D01*
X006522Y019144D01*
X007295Y019371D01*
X008092Y019486D01*
X008495Y019500D01*
X012825Y019500D01*
X013228Y019486D01*
X014025Y019371D01*
X014798Y019144D01*
X015531Y018810D01*
X016209Y018374D01*
X016817Y017847D01*
X017345Y017238D01*
X017780Y016560D01*
X018115Y015828D01*
X018342Y015055D01*
X018456Y014258D01*
X018471Y013855D01*
X018471Y006965D01*
X018456Y006562D01*
X018342Y005765D01*
X018115Y004992D01*
X017780Y004260D01*
X017345Y003582D01*
X016817Y002973D01*
X016209Y002446D01*
X015531Y002010D01*
X014798Y001676D01*
X014160Y001488D02*
X014160Y008910D01*
X013360Y008910D01*
X013360Y008989D02*
X013360Y008736D01*
X013374Y008730D01*
X013480Y008624D01*
X013538Y008485D01*
X013538Y008335D01*
X013480Y008196D01*
X013374Y008090D01*
X013235Y008032D01*
X013085Y008032D01*
X012946Y008090D01*
X012840Y008196D01*
X012782Y008335D01*
X012782Y008485D01*
X012840Y008624D01*
X012946Y008730D01*
X012960Y008736D01*
X012960Y008989D01*
X012885Y008989D01*
X012803Y009071D01*
X012803Y009580D01*
X012883Y009660D01*
X012803Y009740D01*
X012803Y009970D01*
X011619Y009970D01*
X012239Y009350D01*
X012350Y009239D01*
X012350Y008740D01*
X012374Y008730D01*
X012480Y008624D01*
X012538Y008485D01*
X012538Y008335D01*
X012480Y008196D01*
X012374Y008090D01*
X012235Y008032D01*
X012085Y008032D01*
X011946Y008090D01*
X011840Y008196D01*
X011782Y008335D01*
X011782Y008485D01*
X011840Y008624D01*
X011946Y008730D01*
X011970Y008740D01*
X011970Y009081D01*
X011304Y009748D01*
X010841Y009748D01*
X010860Y009728D01*
X010973Y009728D01*
X011090Y009680D01*
X011180Y009590D01*
X011228Y009473D01*
X011228Y009360D01*
X011239Y009350D01*
X011350Y009239D01*
X011350Y008740D01*
X011374Y008730D01*
X011480Y008624D01*
X011538Y008485D01*
X011538Y008335D01*
X011480Y008196D01*
X011374Y008090D01*
X011235Y008032D01*
X011085Y008032D01*
X010946Y008090D01*
X010840Y008196D01*
X010782Y008335D01*
X010782Y008485D01*
X010840Y008624D01*
X010946Y008730D01*
X010970Y008740D01*
X010970Y009081D01*
X010960Y009092D01*
X010847Y009092D01*
X010730Y009140D01*
X010640Y009230D01*
X010592Y009347D01*
X010592Y009433D01*
X009334Y009433D01*
X009340Y009430D01*
X009430Y009340D01*
X009478Y009223D01*
X009478Y009097D01*
X009430Y008980D01*
X009360Y008910D01*
X010970Y008910D01*
X011350Y008910D02*
X011970Y008910D01*
X012350Y008910D02*
X012960Y008910D01*
X013360Y008989D02*
X013435Y008989D01*
X013517Y009071D01*
X013517Y009580D01*
X013437Y009660D01*
X013517Y009740D01*
X013517Y010249D01*
X013435Y010331D01*
X013092Y010331D01*
X013073Y010350D01*
X012994Y010350D01*
X013239Y010595D01*
X013350Y010706D01*
X013350Y012080D01*
X013374Y012090D01*
X013480Y012196D01*
X013538Y012335D01*
X013538Y012485D01*
X013480Y012624D01*
X013374Y012730D01*
X013235Y012788D01*
X013085Y012788D01*
X012946Y012730D01*
X012840Y012624D01*
X012782Y012485D01*
X012782Y012335D01*
X012840Y012196D01*
X012946Y012090D01*
X012970Y012080D01*
X012970Y010864D01*
X012706Y010600D01*
X012517Y010600D01*
X012517Y011080D01*
X012437Y011160D01*
X012517Y011240D01*
X012517Y011749D01*
X012435Y011831D01*
X012360Y011831D01*
X012360Y012084D01*
X012374Y012090D01*
X012480Y012196D01*
X012538Y012335D01*
X012538Y012485D01*
X012480Y012624D01*
X012374Y012730D01*
X012235Y012788D01*
X012085Y012788D01*
X011946Y012730D01*
X011840Y012624D01*
X011782Y012485D01*
X011782Y012335D01*
X011840Y012196D01*
X011946Y012090D01*
X011960Y012084D01*
X011960Y011831D01*
X011885Y011831D01*
X011803Y011749D01*
X011803Y011350D01*
X011517Y011350D01*
X011517Y011749D01*
X011435Y011831D01*
X011360Y011831D01*
X011360Y012084D01*
X011374Y012090D01*
X011480Y012196D01*
X011538Y012335D01*
X011538Y012485D01*
X011480Y012624D01*
X011374Y012730D01*
X011235Y012788D01*
X011085Y012788D01*
X010946Y012730D01*
X010840Y012624D01*
X010782Y012485D01*
X010782Y012335D01*
X010840Y012196D01*
X010946Y012090D01*
X010960Y012084D01*
X010960Y011831D01*
X010885Y011831D01*
X010803Y011749D01*
X010803Y011350D01*
X010739Y011350D01*
X010701Y011387D01*
X009656Y011387D01*
X010239Y011970D01*
X010347Y012079D01*
X010374Y012090D01*
X010480Y012196D01*
X010538Y012335D01*
X010538Y012485D01*
X010480Y012624D01*
X010374Y012730D01*
X010235Y012788D01*
X010085Y012788D01*
X009946Y012730D01*
X009840Y012624D01*
X009782Y012485D01*
X009782Y012335D01*
X009840Y012196D01*
X009884Y012152D01*
X009434Y011702D01*
X006968Y011702D01*
X006950Y011720D01*
X008739Y011720D01*
X009061Y012042D01*
X009085Y012032D01*
X009235Y012032D01*
X009374Y012090D01*
X009480Y012196D01*
X009538Y012335D01*
X009538Y012485D01*
X009480Y012624D01*
X009374Y012730D01*
X009235Y012788D01*
X009085Y012788D01*
X008946Y012730D01*
X008840Y012624D01*
X008782Y012485D01*
X008782Y012335D01*
X008792Y012311D01*
X008581Y012100D01*
X008384Y012100D01*
X008480Y012196D01*
X008538Y012335D01*
X008538Y012485D01*
X008480Y012624D01*
X008374Y012730D01*
X008235Y012788D01*
X008085Y012788D01*
X007946Y012730D01*
X007840Y012624D01*
X007831Y012604D01*
X007831Y012685D01*
X007749Y012767D01*
X007240Y012767D01*
X007160Y012687D01*
X007160Y019332D01*
X007563Y019410D02*
X013757Y019410D01*
X013660Y019424D02*
X013660Y001396D01*
X013757Y001410D02*
X007563Y001410D01*
X007660Y001396D02*
X007660Y008520D01*
X007782Y008410D02*
X006260Y008410D01*
X006660Y008520D02*
X006660Y001635D01*
X007160Y001488D02*
X007160Y008520D01*
X007160Y008920D02*
X007160Y009108D01*
X007660Y009108D02*
X007660Y008920D01*
X008160Y008032D02*
X008160Y001332D01*
X008660Y001320D02*
X008660Y009108D01*
X008960Y008910D02*
X008960Y008736D01*
X008946Y008730D01*
X008840Y008624D01*
X008782Y008485D01*
X008782Y008335D01*
X008840Y008196D01*
X008946Y008090D01*
X009085Y008032D01*
X009235Y008032D01*
X009374Y008090D01*
X009480Y008196D01*
X009538Y008335D01*
X009538Y008485D01*
X009480Y008624D01*
X009374Y008730D01*
X009360Y008736D01*
X009360Y008910D01*
X009160Y009160D02*
X009160Y008410D01*
X008782Y008410D02*
X008538Y008410D01*
X009160Y008032D02*
X009160Y001320D01*
X009660Y001320D02*
X009660Y009433D01*
X009360Y009410D02*
X010592Y009410D01*
X010660Y009210D02*
X010660Y001320D01*
X011160Y001320D02*
X011160Y008032D01*
X010782Y008410D02*
X010538Y008410D01*
X010538Y008485D02*
X010480Y008624D01*
X010374Y008730D01*
X010235Y008788D01*
X010085Y008788D01*
X009946Y008730D01*
X009840Y008624D01*
X009782Y008485D01*
X009782Y008335D01*
X009840Y008196D01*
X009946Y008090D01*
X010085Y008032D01*
X010235Y008032D01*
X010374Y008090D01*
X010480Y008196D01*
X010538Y008335D01*
X010538Y008485D01*
X010160Y008788D02*
X010160Y009433D01*
X011160Y009610D02*
X011160Y009748D01*
X011228Y009410D02*
X011641Y009410D01*
X011660Y009391D02*
X011660Y001320D01*
X012160Y001320D02*
X012160Y008032D01*
X011782Y008410D02*
X011538Y008410D01*
X012538Y008410D02*
X012782Y008410D01*
X013160Y008410D02*
X013160Y009325D01*
X013517Y009410D02*
X014160Y009410D01*
X014160Y009939D01*
X014189Y009910D02*
X013517Y009910D01*
X013160Y010331D02*
X013160Y010516D01*
X013054Y010410D02*
X014189Y010410D01*
X014160Y010381D02*
X014160Y010939D01*
X014189Y010910D02*
X013350Y010910D01*
X012970Y010910D02*
X012517Y010910D01*
X012660Y010600D02*
X012660Y019500D01*
X012160Y019500D02*
X012160Y012788D01*
X012160Y012410D02*
X012160Y011495D01*
X012517Y011410D02*
X012970Y011410D01*
X013350Y011410D02*
X014189Y011410D01*
X014160Y011381D02*
X014160Y019332D01*
X014660Y019185D02*
X014660Y011670D01*
X015160Y011598D02*
X015160Y018979D01*
X015312Y018910D02*
X006008Y018910D01*
X006160Y018979D02*
X006160Y013235D01*
X006180Y013215D02*
X006090Y013305D01*
X005973Y013353D01*
X005847Y013353D01*
X005730Y013305D01*
X005650Y013225D01*
X005601Y013225D01*
X005601Y013290D01*
X005519Y013372D01*
X004970Y013372D01*
X004923Y013325D01*
X004920Y013330D01*
X004890Y013360D01*
X004854Y013381D01*
X004813Y013392D01*
X004614Y013392D01*
X004614Y013073D01*
X004537Y013073D01*
X004537Y012997D01*
X004199Y012997D01*
X004199Y012817D01*
X004210Y012776D01*
X004231Y012740D01*
X004261Y012710D01*
X004297Y012689D01*
X004338Y012678D01*
X004537Y012678D01*
X004537Y012997D01*
X004614Y012997D01*
X004614Y012678D01*
X004784Y012678D01*
X004720Y012614D01*
X004606Y012500D01*
X004569Y012510D01*
X004438Y012510D01*
X004438Y012100D01*
X004438Y011690D01*
X004563Y011690D01*
X004563Y010364D01*
X004674Y010252D01*
X004877Y010049D01*
X004877Y009130D01*
X004753Y009130D01*
X004753Y008720D01*
X004753Y008310D01*
X004753Y008720D01*
X004753Y008720D01*
X004753Y008720D01*
X004753Y009130D01*
X004621Y009130D01*
X004581Y009119D01*
X004565Y009110D01*
X003640Y009110D01*
X003558Y009028D01*
X003558Y008412D01*
X003640Y008330D01*
X003560Y008410D02*
X002849Y008410D01*
X002849Y008910D02*
X003558Y008910D01*
X003660Y009110D02*
X003660Y009460D01*
X003610Y009410D02*
X003710Y009410D01*
X004110Y009410D02*
X004877Y009410D01*
X004660Y009130D02*
X004660Y010266D01*
X004563Y010410D02*
X004360Y010410D01*
X004360Y010910D02*
X004563Y010910D01*
X004943Y010910D02*
X006210Y010910D01*
X006210Y010410D02*
X005054Y010410D01*
X005160Y010304D02*
X005160Y011690D01*
X005067Y011910D02*
X005067Y011910D01*
X004943Y011410D02*
X006210Y011410D01*
X006160Y011710D02*
X006160Y009110D01*
X006210Y009410D02*
X005257Y009410D01*
X005257Y009910D02*
X006210Y009910D01*
X006600Y009308D02*
X009012Y009308D01*
X009160Y009160D01*
X009538Y008410D02*
X009782Y008410D01*
X010160Y008032D02*
X010160Y001320D01*
X012660Y001320D02*
X012660Y009970D01*
X012803Y009910D02*
X011679Y009910D01*
X011660Y009929D02*
X011660Y009970D01*
X012160Y009970D02*
X012160Y009429D01*
X012179Y009410D02*
X012803Y009410D01*
X013538Y008410D02*
X018471Y008410D01*
X018471Y008910D02*
X016131Y008910D01*
X016160Y008939D02*
X016160Y005779D01*
X015895Y005779D02*
X015854Y005768D01*
X015818Y005747D01*
X015788Y005717D01*
X015767Y005680D01*
X015756Y005640D01*
X015756Y004970D01*
X016565Y004970D01*
X016565Y005779D01*
X015895Y005779D01*
X015756Y005410D02*
X005544Y005410D01*
X005544Y004910D02*
X016565Y004910D01*
X016565Y004970D02*
X016565Y004850D01*
X016685Y004850D01*
X016685Y004970D01*
X017493Y004970D01*
X017493Y005640D01*
X017482Y005680D01*
X017461Y005717D01*
X017431Y005747D01*
X017395Y005768D01*
X017354Y005779D01*
X016685Y005779D01*
X016685Y004970D01*
X016565Y004970D01*
X016660Y004970D02*
X016660Y009141D01*
X016850Y009410D02*
X018471Y009410D01*
X018471Y009910D02*
X017017Y009910D01*
X017017Y010410D02*
X018471Y010410D01*
X018471Y010910D02*
X016170Y010910D01*
X016170Y011410D02*
X018471Y011410D01*
X018471Y011910D02*
X013350Y011910D01*
X012970Y011910D02*
X012360Y011910D01*
X011960Y011910D02*
X011360Y011910D01*
X010960Y011910D02*
X010179Y011910D01*
X010160Y011891D02*
X010160Y011387D01*
X009679Y011410D02*
X010803Y011410D01*
X010660Y011387D02*
X010660Y019500D01*
X011160Y019500D02*
X011160Y012788D01*
X011160Y012410D02*
X011160Y011495D01*
X011517Y011410D02*
X011803Y011410D01*
X011660Y011350D02*
X011660Y019500D01*
X013160Y019488D02*
X013160Y012788D01*
X012782Y012410D02*
X012538Y012410D01*
X011782Y012410D02*
X011538Y012410D01*
X010782Y012410D02*
X010538Y012410D01*
X010160Y012788D02*
X010160Y019500D01*
X009660Y019500D02*
X009660Y011929D01*
X009641Y011910D02*
X008929Y011910D01*
X009160Y012032D02*
X009160Y011702D01*
X008660Y011702D02*
X008660Y011720D01*
X008660Y012179D02*
X008660Y019500D01*
X009160Y019500D02*
X009160Y012788D01*
X008782Y012410D02*
X008538Y012410D01*
X008160Y012788D02*
X008160Y019488D01*
X007660Y019424D02*
X007660Y012767D01*
X007160Y012687D02*
X007080Y012767D01*
X006738Y012767D01*
X006654Y012850D01*
X006175Y012850D01*
X006180Y012855D01*
X006228Y012972D01*
X006228Y013098D01*
X006180Y013215D01*
X006203Y012910D02*
X018471Y012910D01*
X018471Y013410D02*
X002849Y013410D01*
X002849Y012910D02*
X004199Y012910D01*
X004199Y013073D02*
X004537Y013073D01*
X004537Y013392D01*
X004338Y013392D01*
X004297Y013381D01*
X004261Y013360D01*
X004231Y013330D01*
X004210Y013294D01*
X004199Y013253D01*
X004199Y013073D01*
X004537Y012910D02*
X004614Y012910D01*
X004660Y012678D02*
X004660Y012554D01*
X004438Y012510D02*
X004306Y012510D01*
X004266Y012499D01*
X004250Y012490D01*
X003640Y012490D01*
X003558Y012408D01*
X003558Y011792D01*
X003640Y011710D01*
X004250Y011710D01*
X004266Y011701D01*
X004306Y011690D01*
X004438Y011690D01*
X004438Y012100D01*
X004438Y012100D01*
X004438Y012100D01*
X004438Y012510D01*
X004438Y012410D02*
X004438Y012410D01*
X004160Y012490D02*
X004160Y017451D01*
X004124Y017410D02*
X017196Y017410D01*
X017160Y017451D02*
X017160Y005779D01*
X017493Y005410D02*
X018238Y005410D01*
X018160Y005146D02*
X018160Y015674D01*
X018077Y015910D02*
X003243Y015910D01*
X003160Y015674D02*
X003160Y011762D01*
X002849Y011910D02*
X003558Y011910D01*
X003660Y011710D02*
X003660Y010757D01*
X003610Y010910D02*
X003960Y010910D01*
X004160Y010978D02*
X004160Y011710D01*
X004438Y011910D02*
X004438Y011910D01*
X004563Y011410D02*
X003610Y011410D01*
X003560Y012410D02*
X002849Y012410D01*
X003660Y012490D02*
X003660Y016748D01*
X003764Y016910D02*
X017556Y016910D01*
X017660Y016748D02*
X017660Y004072D01*
X017482Y004140D02*
X017493Y004180D01*
X017493Y004850D01*
X016685Y004850D01*
X016685Y004041D01*
X017354Y004041D01*
X017395Y004052D01*
X017431Y004073D01*
X017461Y004103D01*
X017482Y004140D01*
X017160Y004041D02*
X017160Y003369D01*
X017196Y003410D02*
X004124Y003410D01*
X004160Y003369D02*
X004160Y004061D01*
X003847Y004410D02*
X003471Y004410D01*
X003243Y004910D02*
X003847Y004910D01*
X003847Y005410D02*
X003082Y005410D01*
X003160Y005146D02*
X003160Y009058D01*
X004160Y009110D02*
X004160Y009460D01*
X004160Y009860D02*
X004160Y009960D01*
X004110Y009910D02*
X004877Y009910D01*
X005660Y009110D02*
X005660Y011710D01*
X006660Y012844D02*
X006660Y019185D01*
X005660Y018727D02*
X005660Y013235D01*
X005160Y013372D02*
X005160Y018406D01*
X005167Y018410D02*
X016153Y018410D01*
X016160Y018406D02*
X016160Y011598D01*
X015660Y011670D02*
X015660Y018727D01*
X016660Y017983D02*
X016660Y010831D01*
X015150Y011410D02*
X015131Y011410D01*
X013538Y012410D02*
X018471Y012410D01*
X018469Y013910D02*
X002851Y013910D01*
X002885Y014410D02*
X018435Y014410D01*
X018363Y014910D02*
X002957Y014910D01*
X003082Y015410D02*
X018238Y015410D01*
X017849Y016410D02*
X003471Y016410D01*
X004576Y017910D02*
X016744Y017910D01*
X009782Y012410D02*
X009538Y012410D01*
X009660Y011391D02*
X009660Y011387D01*
X008160Y011702D02*
X008160Y011720D01*
X007660Y011702D02*
X007660Y011720D01*
X007160Y011702D02*
X007160Y011720D01*
X004660Y013392D02*
X004660Y017983D01*
X006660Y009058D02*
X006660Y008920D01*
X005660Y008016D02*
X005660Y002093D01*
X005167Y002410D02*
X016153Y002410D01*
X016160Y002414D02*
X016160Y004041D01*
X015895Y004041D02*
X016565Y004041D01*
X016565Y004850D01*
X015756Y004850D01*
X015756Y004180D01*
X015767Y004140D01*
X015788Y004103D01*
X015818Y004073D01*
X015854Y004052D01*
X015895Y004041D01*
X015756Y004410D02*
X005544Y004410D01*
X005160Y004061D02*
X005160Y002414D01*
X004660Y002837D02*
X004660Y004061D01*
X004576Y002910D02*
X016744Y002910D01*
X016660Y002837D02*
X016660Y004850D01*
X016685Y004910D02*
X018077Y004910D01*
X017849Y004410D02*
X017493Y004410D01*
X017160Y004850D02*
X017160Y004970D01*
X016685Y005410D02*
X016565Y005410D01*
X016160Y004970D02*
X016160Y004850D01*
X016565Y004410D02*
X016685Y004410D01*
X018363Y005910D02*
X004975Y005910D01*
X005160Y005759D02*
X005160Y006141D01*
X004891Y006410D02*
X002885Y006410D01*
X002957Y005910D02*
X004595Y005910D01*
X004660Y006179D02*
X004660Y007428D01*
X005055Y007410D02*
X002849Y007410D01*
X002849Y007910D02*
X004199Y007910D01*
X004199Y007823D02*
X004537Y007823D01*
X004537Y008142D01*
X004338Y008142D01*
X004297Y008131D01*
X004261Y008110D01*
X004231Y008080D01*
X004210Y008044D01*
X004199Y008003D01*
X004199Y007823D01*
X004537Y007910D02*
X004614Y007910D01*
X004660Y008142D02*
X004660Y008310D01*
X004753Y008410D02*
X004753Y008410D01*
X004753Y008910D02*
X004753Y008910D01*
X004160Y008330D02*
X004160Y005759D01*
X005055Y006910D02*
X002851Y006910D01*
X005435Y006910D02*
X018469Y006910D01*
X018471Y007410D02*
X005435Y007410D01*
X005601Y007910D02*
X018471Y007910D01*
X018435Y006410D02*
X005429Y006410D01*
X013160Y008032D02*
X013160Y001332D01*
X015660Y002093D02*
X015660Y008650D01*
X014160Y009120D02*
X014160Y009200D01*
D21*
X013160Y009995D02*
X012995Y010160D01*
X010660Y010160D01*
X010567Y010253D01*
X006600Y010253D01*
X006600Y010567D02*
X010503Y010567D01*
X010660Y010410D01*
X012785Y010410D01*
X013160Y010785D01*
X013160Y012410D01*
X011825Y011160D02*
X012160Y010825D01*
X011825Y011160D02*
X010660Y011160D01*
X010623Y011197D01*
X006600Y011197D01*
X006600Y010882D02*
X011103Y010882D01*
X011160Y010825D01*
X011382Y009938D02*
X012160Y009160D01*
X012160Y008410D01*
X011160Y008410D02*
X011160Y009160D01*
X010910Y009410D01*
X010697Y009623D01*
X006600Y009623D01*
X006600Y009938D02*
X011382Y009938D01*
X009512Y011512D02*
X010160Y012160D01*
X010160Y012410D01*
X009512Y011512D02*
X006600Y011512D01*
X006535Y011910D02*
X008660Y011910D01*
X009160Y012410D01*
X008160Y012410D02*
X007495Y012410D01*
X006825Y012410D02*
X006575Y012660D01*
X005910Y012660D01*
X005697Y012447D01*
X005697Y012100D01*
X006012Y012100D02*
X006345Y012100D01*
X006535Y011910D01*
X005910Y013035D02*
X005245Y013035D01*
X005285Y013034D01*
X005285Y012535D01*
X005382Y012438D01*
X005382Y012100D01*
X005285Y012535D02*
X004910Y012535D01*
X004753Y012378D01*
X004753Y012100D01*
X004753Y010442D01*
X005067Y010128D01*
X005067Y008720D01*
X005067Y008378D01*
X005285Y008160D01*
X005285Y007825D01*
X005245Y007785D01*
X005245Y006495D01*
X004785Y006035D01*
X004785Y005000D01*
X004695Y004910D01*
X005285Y008160D02*
X005535Y008160D01*
X005697Y008322D01*
X005697Y008720D01*
X003910Y009660D02*
X003632Y009938D01*
X003220Y009938D01*
X003220Y010253D02*
X003817Y010253D01*
X003910Y010160D01*
X004067Y010567D02*
X004160Y010660D01*
X004067Y010567D02*
X003220Y010567D01*
X014660Y011160D02*
X015160Y010660D01*
X016160Y010660D01*
X016325Y010495D01*
X016660Y010495D01*
X016660Y009825D02*
X016660Y009410D01*
X016410Y009160D01*
X015660Y009160D01*
D22*
X010910Y009410D03*
X009160Y009160D03*
X005910Y010160D03*
X005160Y010785D03*
X004660Y009910D03*
X003910Y009660D03*
X003910Y010160D03*
X004160Y010660D03*
X005910Y013035D03*
D23*
X014660Y009160D02*
X014660Y008160D01*
X016625Y006195D01*
X016625Y004910D01*
M02*
