G75*
%MOIN*%
%OFA0B0*%
%FSLAX24Y24*%
%IPPOS*%
%LPD*%
%AMOC8*
5,1,8,0,0,1.08239X$1,22.5*
%
%ADD10C,0.0000*%
%ADD11R,0.0476X0.0476*%
%ADD12C,0.0476*%
%ADD13C,0.0050*%
%ADD14R,0.0250X0.0500*%
%ADD15R,0.0740X0.0740*%
%ADD16OC8,0.0740*%
%ADD17C,0.0100*%
%ADD18C,0.0357*%
D10*
X002589Y006965D02*
X002589Y013855D01*
X002591Y014007D01*
X002597Y014159D01*
X002607Y014311D01*
X002620Y014462D01*
X002638Y014613D01*
X002659Y014764D01*
X002685Y014914D01*
X002714Y015063D01*
X002747Y015212D01*
X002784Y015359D01*
X002824Y015506D01*
X002869Y015651D01*
X002917Y015795D01*
X002969Y015938D01*
X003024Y016080D01*
X003083Y016220D01*
X003146Y016359D01*
X003212Y016496D01*
X003282Y016631D01*
X003355Y016764D01*
X003432Y016895D01*
X003512Y017025D01*
X003595Y017152D01*
X003681Y017277D01*
X003771Y017400D01*
X003864Y017520D01*
X003960Y017638D01*
X004059Y017754D01*
X004161Y017867D01*
X004265Y017977D01*
X004373Y018085D01*
X004483Y018189D01*
X004596Y018291D01*
X004712Y018390D01*
X004830Y018486D01*
X004950Y018579D01*
X005073Y018669D01*
X005198Y018755D01*
X005325Y018838D01*
X005455Y018918D01*
X005586Y018995D01*
X005719Y019068D01*
X005854Y019138D01*
X005991Y019204D01*
X006130Y019267D01*
X006270Y019326D01*
X006412Y019381D01*
X006555Y019433D01*
X006699Y019481D01*
X006844Y019526D01*
X006991Y019566D01*
X007138Y019603D01*
X007287Y019636D01*
X007436Y019665D01*
X007586Y019691D01*
X007737Y019712D01*
X007888Y019730D01*
X008039Y019743D01*
X008191Y019753D01*
X008343Y019759D01*
X008495Y019761D01*
X008495Y019760D02*
X012825Y019760D01*
X012825Y019761D02*
X012977Y019759D01*
X013129Y019753D01*
X013281Y019743D01*
X013432Y019730D01*
X013583Y019712D01*
X013734Y019691D01*
X013884Y019665D01*
X014033Y019636D01*
X014182Y019603D01*
X014329Y019566D01*
X014476Y019526D01*
X014621Y019481D01*
X014765Y019433D01*
X014908Y019381D01*
X015050Y019326D01*
X015190Y019267D01*
X015329Y019204D01*
X015466Y019138D01*
X015601Y019068D01*
X015734Y018995D01*
X015865Y018918D01*
X015995Y018838D01*
X016122Y018755D01*
X016247Y018669D01*
X016370Y018579D01*
X016490Y018486D01*
X016608Y018390D01*
X016724Y018291D01*
X016837Y018189D01*
X016947Y018085D01*
X017055Y017977D01*
X017159Y017867D01*
X017261Y017754D01*
X017360Y017638D01*
X017456Y017520D01*
X017549Y017400D01*
X017639Y017277D01*
X017725Y017152D01*
X017808Y017025D01*
X017888Y016895D01*
X017965Y016764D01*
X018038Y016631D01*
X018108Y016496D01*
X018174Y016359D01*
X018237Y016220D01*
X018296Y016080D01*
X018351Y015938D01*
X018403Y015795D01*
X018451Y015651D01*
X018496Y015506D01*
X018536Y015359D01*
X018573Y015212D01*
X018606Y015063D01*
X018635Y014914D01*
X018661Y014764D01*
X018682Y014613D01*
X018700Y014462D01*
X018713Y014311D01*
X018723Y014159D01*
X018729Y014007D01*
X018731Y013855D01*
X018731Y006965D01*
X018729Y006813D01*
X018723Y006661D01*
X018713Y006509D01*
X018700Y006358D01*
X018682Y006207D01*
X018661Y006056D01*
X018635Y005906D01*
X018606Y005757D01*
X018573Y005608D01*
X018536Y005461D01*
X018496Y005314D01*
X018451Y005169D01*
X018403Y005025D01*
X018351Y004882D01*
X018296Y004740D01*
X018237Y004600D01*
X018174Y004461D01*
X018108Y004324D01*
X018038Y004189D01*
X017965Y004056D01*
X017888Y003925D01*
X017808Y003795D01*
X017725Y003668D01*
X017639Y003543D01*
X017549Y003420D01*
X017456Y003300D01*
X017360Y003182D01*
X017261Y003066D01*
X017159Y002953D01*
X017055Y002843D01*
X016947Y002735D01*
X016837Y002631D01*
X016724Y002529D01*
X016608Y002430D01*
X016490Y002334D01*
X016370Y002241D01*
X016247Y002151D01*
X016122Y002065D01*
X015995Y001982D01*
X015865Y001902D01*
X015734Y001825D01*
X015601Y001752D01*
X015466Y001682D01*
X015329Y001616D01*
X015190Y001553D01*
X015050Y001494D01*
X014908Y001439D01*
X014765Y001387D01*
X014621Y001339D01*
X014476Y001294D01*
X014329Y001254D01*
X014182Y001217D01*
X014033Y001184D01*
X013884Y001155D01*
X013734Y001129D01*
X013583Y001108D01*
X013432Y001090D01*
X013281Y001077D01*
X013129Y001067D01*
X012977Y001061D01*
X012825Y001059D01*
X012825Y001060D02*
X008495Y001060D01*
X008495Y001059D02*
X008343Y001061D01*
X008191Y001067D01*
X008039Y001077D01*
X007888Y001090D01*
X007737Y001108D01*
X007586Y001129D01*
X007436Y001155D01*
X007287Y001184D01*
X007138Y001217D01*
X006991Y001254D01*
X006844Y001294D01*
X006699Y001339D01*
X006555Y001387D01*
X006412Y001439D01*
X006270Y001494D01*
X006130Y001553D01*
X005991Y001616D01*
X005854Y001682D01*
X005719Y001752D01*
X005586Y001825D01*
X005455Y001902D01*
X005325Y001982D01*
X005198Y002065D01*
X005073Y002151D01*
X004950Y002241D01*
X004830Y002334D01*
X004712Y002430D01*
X004596Y002529D01*
X004483Y002631D01*
X004373Y002735D01*
X004265Y002843D01*
X004161Y002953D01*
X004059Y003066D01*
X003960Y003182D01*
X003864Y003300D01*
X003771Y003420D01*
X003681Y003543D01*
X003595Y003668D01*
X003512Y003795D01*
X003432Y003925D01*
X003355Y004056D01*
X003282Y004189D01*
X003212Y004324D01*
X003146Y004461D01*
X003083Y004600D01*
X003024Y004740D01*
X002969Y004882D01*
X002917Y005025D01*
X002869Y005169D01*
X002824Y005314D01*
X002784Y005461D01*
X002747Y005608D01*
X002714Y005757D01*
X002685Y005906D01*
X002659Y006056D01*
X002638Y006207D01*
X002620Y006358D01*
X002607Y006509D01*
X002597Y006661D01*
X002591Y006813D01*
X002589Y006965D01*
D11*
X008160Y008410D03*
D12*
X009160Y008410D03*
X010160Y008410D03*
X011160Y008410D03*
X012160Y008410D03*
X013160Y008410D03*
X013160Y012410D03*
X012160Y012410D03*
X011160Y012410D03*
X010160Y012410D03*
X009160Y012410D03*
X008160Y012410D03*
D13*
X003781Y003879D02*
X004126Y003414D01*
X004516Y002984D01*
X004945Y002595D01*
X005411Y002250D01*
X005908Y001952D01*
X006432Y001704D01*
X006977Y001509D01*
X007539Y001368D01*
X008113Y001283D01*
X008691Y001254D01*
X012629Y001254D01*
X013207Y001283D01*
X013781Y001368D01*
X014343Y001509D01*
X014888Y001704D01*
X015412Y001952D01*
X015909Y002250D01*
X016375Y002595D01*
X016804Y002984D01*
X017194Y003414D01*
X017539Y003879D01*
X017837Y004376D01*
X018084Y004900D01*
X018280Y005446D01*
X018421Y006008D01*
X018506Y006581D01*
X018534Y007160D01*
X002786Y007160D01*
X002814Y006581D01*
X002899Y006008D01*
X003040Y005446D01*
X003236Y004900D01*
X003483Y004376D01*
X003781Y003879D01*
X003794Y003862D02*
X017526Y003862D01*
X017558Y003911D02*
X003762Y003911D01*
X003733Y003959D02*
X017587Y003959D01*
X017616Y004008D02*
X003704Y004008D01*
X003675Y004056D02*
X017645Y004056D01*
X017674Y004105D02*
X003646Y004105D01*
X003617Y004153D02*
X017703Y004153D01*
X017732Y004202D02*
X003588Y004202D01*
X003559Y004250D02*
X017761Y004250D01*
X017790Y004299D02*
X003530Y004299D01*
X003500Y004347D02*
X017820Y004347D01*
X017846Y004396D02*
X003474Y004396D01*
X003451Y004444D02*
X017869Y004444D01*
X017892Y004493D02*
X003428Y004493D01*
X003405Y004541D02*
X017915Y004541D01*
X017938Y004590D02*
X003382Y004590D01*
X003359Y004638D02*
X017961Y004638D01*
X017984Y004687D02*
X003336Y004687D01*
X003313Y004735D02*
X018007Y004735D01*
X018030Y004784D02*
X003290Y004784D01*
X003267Y004832D02*
X018053Y004832D01*
X018075Y004881D02*
X003245Y004881D01*
X003225Y004929D02*
X018095Y004929D01*
X018112Y004978D02*
X003208Y004978D01*
X003190Y005026D02*
X018130Y005026D01*
X018147Y005075D02*
X003173Y005075D01*
X003156Y005123D02*
X018164Y005123D01*
X018182Y005172D02*
X003138Y005172D01*
X003121Y005220D02*
X018199Y005220D01*
X018216Y005269D02*
X003104Y005269D01*
X003086Y005317D02*
X018234Y005317D01*
X018251Y005366D02*
X003069Y005366D01*
X003051Y005414D02*
X018269Y005414D01*
X018284Y005463D02*
X003036Y005463D01*
X003024Y005511D02*
X018296Y005511D01*
X018308Y005560D02*
X003012Y005560D01*
X003000Y005608D02*
X018320Y005608D01*
X018333Y005657D02*
X002987Y005657D01*
X002975Y005705D02*
X018345Y005705D01*
X018357Y005754D02*
X002963Y005754D01*
X002951Y005802D02*
X018369Y005802D01*
X018381Y005851D02*
X002939Y005851D01*
X002927Y005899D02*
X018393Y005899D01*
X018406Y005948D02*
X002914Y005948D01*
X002902Y005996D02*
X018418Y005996D01*
X018426Y006045D02*
X002894Y006045D01*
X002887Y006093D02*
X018433Y006093D01*
X018440Y006142D02*
X002880Y006142D01*
X002872Y006190D02*
X018448Y006190D01*
X018455Y006239D02*
X002865Y006239D01*
X002858Y006287D02*
X018462Y006287D01*
X018469Y006336D02*
X002851Y006336D01*
X002844Y006384D02*
X018476Y006384D01*
X018484Y006433D02*
X002836Y006433D01*
X002829Y006481D02*
X018491Y006481D01*
X018498Y006530D02*
X002822Y006530D01*
X002815Y006578D02*
X018505Y006578D01*
X018508Y006627D02*
X002812Y006627D01*
X002810Y006675D02*
X018510Y006675D01*
X018513Y006724D02*
X002807Y006724D01*
X002805Y006772D02*
X018515Y006772D01*
X018517Y006821D02*
X002803Y006821D01*
X002800Y006869D02*
X018520Y006869D01*
X018522Y006918D02*
X002798Y006918D01*
X002795Y006966D02*
X018525Y006966D01*
X018527Y007015D02*
X002793Y007015D01*
X002791Y007063D02*
X018529Y007063D01*
X018532Y007112D02*
X002788Y007112D01*
X003830Y003814D02*
X017490Y003814D01*
X017455Y003765D02*
X003865Y003765D01*
X003901Y003717D02*
X017419Y003717D01*
X017383Y003668D02*
X003937Y003668D01*
X003973Y003620D02*
X017347Y003620D01*
X017311Y003571D02*
X004009Y003571D01*
X004045Y003523D02*
X017275Y003523D01*
X017239Y003474D02*
X004081Y003474D01*
X004117Y003426D02*
X017203Y003426D01*
X017161Y003377D02*
X004159Y003377D01*
X004203Y003329D02*
X017117Y003329D01*
X017073Y003280D02*
X004247Y003280D01*
X004291Y003232D02*
X017029Y003232D01*
X016985Y003183D02*
X004335Y003183D01*
X004379Y003135D02*
X016941Y003135D01*
X016897Y003086D02*
X004423Y003086D01*
X004467Y003038D02*
X016853Y003038D01*
X016809Y002989D02*
X004511Y002989D01*
X004563Y002941D02*
X016757Y002941D01*
X016703Y002892D02*
X004617Y002892D01*
X004670Y002844D02*
X016650Y002844D01*
X016596Y002795D02*
X004724Y002795D01*
X004777Y002747D02*
X016543Y002747D01*
X016489Y002698D02*
X004831Y002698D01*
X004884Y002650D02*
X016436Y002650D01*
X016382Y002601D02*
X004938Y002601D01*
X005002Y002553D02*
X016318Y002553D01*
X016253Y002504D02*
X005067Y002504D01*
X005133Y002456D02*
X016187Y002456D01*
X016122Y002407D02*
X005198Y002407D01*
X005263Y002359D02*
X016057Y002359D01*
X015991Y002310D02*
X005329Y002310D01*
X005394Y002262D02*
X015926Y002262D01*
X015849Y002213D02*
X005471Y002213D01*
X005552Y002165D02*
X015768Y002165D01*
X015687Y002116D02*
X005633Y002116D01*
X005714Y002068D02*
X015606Y002068D01*
X015525Y002019D02*
X005795Y002019D01*
X005876Y001971D02*
X015444Y001971D01*
X015350Y001922D02*
X005970Y001922D01*
X006072Y001874D02*
X015248Y001874D01*
X015145Y001825D02*
X006175Y001825D01*
X006277Y001777D02*
X015043Y001777D01*
X014940Y001728D02*
X006380Y001728D01*
X006499Y001680D02*
X014821Y001680D01*
X014686Y001631D02*
X006634Y001631D01*
X006770Y001583D02*
X014550Y001583D01*
X014415Y001534D02*
X006905Y001534D01*
X007068Y001486D02*
X014252Y001486D01*
X014058Y001437D02*
X007262Y001437D01*
X007456Y001389D02*
X013864Y001389D01*
X013595Y001340D02*
X007725Y001340D01*
X008052Y001292D02*
X013268Y001292D01*
X018534Y013660D02*
X002786Y013660D01*
X002814Y014239D01*
X002899Y014812D01*
X003040Y015374D01*
X003236Y015920D01*
X003483Y016444D01*
X003781Y016941D01*
X004126Y017406D01*
X004516Y017836D01*
X004945Y018225D01*
X005411Y018570D01*
X005908Y018868D01*
X006432Y019116D01*
X006977Y019311D01*
X007539Y019452D01*
X008113Y019537D01*
X008691Y019566D01*
X012629Y019566D01*
X013207Y019537D01*
X013781Y019452D01*
X014343Y019311D01*
X014888Y019116D01*
X015412Y018868D01*
X015909Y018570D01*
X016375Y018225D01*
X016804Y017836D01*
X017194Y017406D01*
X017539Y016941D01*
X017837Y016444D01*
X018084Y015920D01*
X018280Y015374D01*
X018421Y014812D01*
X018506Y014239D01*
X018534Y013660D01*
X018532Y013708D02*
X002788Y013708D01*
X002791Y013757D02*
X018529Y013757D01*
X018527Y013805D02*
X002793Y013805D01*
X002795Y013854D02*
X018525Y013854D01*
X018522Y013902D02*
X002798Y013902D01*
X002800Y013951D02*
X018520Y013951D01*
X018517Y013999D02*
X002803Y013999D01*
X002805Y014048D02*
X018515Y014048D01*
X018513Y014096D02*
X002807Y014096D01*
X002810Y014145D02*
X018510Y014145D01*
X018508Y014193D02*
X002812Y014193D01*
X002815Y014242D02*
X018505Y014242D01*
X018498Y014290D02*
X002822Y014290D01*
X002829Y014339D02*
X018491Y014339D01*
X018484Y014387D02*
X002836Y014387D01*
X002844Y014436D02*
X018476Y014436D01*
X018469Y014484D02*
X002851Y014484D01*
X002858Y014533D02*
X018462Y014533D01*
X018455Y014581D02*
X002865Y014581D01*
X002872Y014630D02*
X018448Y014630D01*
X018440Y014678D02*
X002880Y014678D01*
X002887Y014727D02*
X018433Y014727D01*
X018426Y014775D02*
X002894Y014775D01*
X002902Y014824D02*
X018418Y014824D01*
X018406Y014872D02*
X002914Y014872D01*
X002927Y014921D02*
X018393Y014921D01*
X018381Y014969D02*
X002939Y014969D01*
X002951Y015018D02*
X018369Y015018D01*
X018357Y015066D02*
X002963Y015066D01*
X002975Y015115D02*
X018345Y015115D01*
X018333Y015163D02*
X002987Y015163D01*
X003000Y015212D02*
X018320Y015212D01*
X018308Y015260D02*
X003012Y015260D01*
X003024Y015309D02*
X018296Y015309D01*
X018284Y015357D02*
X003036Y015357D01*
X003051Y015406D02*
X018269Y015406D01*
X018251Y015454D02*
X003069Y015454D01*
X003086Y015503D02*
X018234Y015503D01*
X018216Y015551D02*
X003104Y015551D01*
X003121Y015600D02*
X018199Y015600D01*
X018182Y015648D02*
X003138Y015648D01*
X003156Y015697D02*
X018164Y015697D01*
X018147Y015745D02*
X003173Y015745D01*
X003190Y015794D02*
X018130Y015794D01*
X018112Y015842D02*
X003208Y015842D01*
X003225Y015891D02*
X018095Y015891D01*
X018075Y015939D02*
X003245Y015939D01*
X003267Y015988D02*
X018053Y015988D01*
X018030Y016036D02*
X003290Y016036D01*
X003313Y016085D02*
X018007Y016085D01*
X017984Y016133D02*
X003336Y016133D01*
X003359Y016182D02*
X017961Y016182D01*
X017938Y016230D02*
X003382Y016230D01*
X003405Y016279D02*
X017915Y016279D01*
X017892Y016327D02*
X003428Y016327D01*
X003451Y016376D02*
X017869Y016376D01*
X017846Y016424D02*
X003474Y016424D01*
X003500Y016473D02*
X017820Y016473D01*
X017790Y016521D02*
X003530Y016521D01*
X003559Y016570D02*
X017761Y016570D01*
X017732Y016618D02*
X003588Y016618D01*
X003617Y016667D02*
X017703Y016667D01*
X017674Y016715D02*
X003646Y016715D01*
X003675Y016764D02*
X017645Y016764D01*
X017616Y016812D02*
X003704Y016812D01*
X003733Y016861D02*
X017587Y016861D01*
X017558Y016909D02*
X003762Y016909D01*
X003794Y016958D02*
X017526Y016958D01*
X017490Y017006D02*
X003830Y017006D01*
X003865Y017055D02*
X017455Y017055D01*
X017419Y017103D02*
X003901Y017103D01*
X003937Y017152D02*
X017383Y017152D01*
X017347Y017200D02*
X003973Y017200D01*
X004009Y017249D02*
X017311Y017249D01*
X017275Y017297D02*
X004045Y017297D01*
X004081Y017346D02*
X017239Y017346D01*
X017203Y017394D02*
X004117Y017394D01*
X004159Y017443D02*
X017161Y017443D01*
X017117Y017491D02*
X004203Y017491D01*
X004247Y017540D02*
X017073Y017540D01*
X017029Y017588D02*
X004291Y017588D01*
X004335Y017637D02*
X016985Y017637D01*
X016941Y017685D02*
X004379Y017685D01*
X004423Y017734D02*
X016897Y017734D01*
X016853Y017782D02*
X004467Y017782D01*
X004511Y017831D02*
X016809Y017831D01*
X016757Y017879D02*
X004563Y017879D01*
X004617Y017928D02*
X016703Y017928D01*
X016650Y017976D02*
X004670Y017976D01*
X004724Y018025D02*
X016596Y018025D01*
X016543Y018073D02*
X004777Y018073D01*
X004831Y018122D02*
X016489Y018122D01*
X016436Y018170D02*
X004884Y018170D01*
X004938Y018219D02*
X016382Y018219D01*
X016318Y018267D02*
X005002Y018267D01*
X005067Y018316D02*
X016253Y018316D01*
X016187Y018364D02*
X005133Y018364D01*
X005198Y018413D02*
X016122Y018413D01*
X016057Y018461D02*
X005263Y018461D01*
X005329Y018510D02*
X015991Y018510D01*
X015926Y018558D02*
X005394Y018558D01*
X005471Y018607D02*
X015849Y018607D01*
X015768Y018655D02*
X005552Y018655D01*
X005633Y018704D02*
X015687Y018704D01*
X015606Y018752D02*
X005714Y018752D01*
X005795Y018801D02*
X015525Y018801D01*
X015444Y018849D02*
X005876Y018849D01*
X005970Y018898D02*
X015350Y018898D01*
X015248Y018946D02*
X006072Y018946D01*
X006175Y018995D02*
X015145Y018995D01*
X015043Y019043D02*
X006277Y019043D01*
X006380Y019092D02*
X014940Y019092D01*
X014821Y019140D02*
X006499Y019140D01*
X006634Y019189D02*
X014686Y019189D01*
X014550Y019237D02*
X006770Y019237D01*
X006905Y019286D02*
X014415Y019286D01*
X014252Y019334D02*
X007068Y019334D01*
X007262Y019383D02*
X014058Y019383D01*
X013864Y019431D02*
X007456Y019431D01*
X007725Y019480D02*
X013595Y019480D01*
X013268Y019528D02*
X008052Y019528D01*
D14*
X004754Y013660D03*
X004754Y007160D03*
X016566Y007160D03*
X016566Y013660D03*
D15*
X015660Y011160D03*
D16*
X015660Y010160D03*
X015660Y009160D03*
X014660Y009160D03*
X014660Y010160D03*
X014660Y011160D03*
D17*
X004785Y011160D01*
X004753Y011160D01*
X004477Y011198D02*
X004340Y011198D01*
X004340Y011100D02*
X004477Y011100D01*
X004477Y011099D02*
X004524Y010985D01*
X004610Y010899D01*
X004724Y010852D01*
X004846Y010852D01*
X004960Y010899D01*
X005041Y010980D01*
X006660Y010980D01*
X006660Y009160D01*
X004340Y009160D01*
X004340Y009485D01*
X004218Y009606D01*
X004218Y009721D01*
X004171Y009835D01*
X004096Y009910D01*
X004171Y009985D01*
X004218Y010099D01*
X004218Y010221D01*
X004171Y010335D01*
X004155Y010352D01*
X004221Y010352D01*
X004335Y010399D01*
X004421Y010485D01*
X004468Y010599D01*
X004468Y010721D01*
X004421Y010835D01*
X004340Y010916D01*
X004340Y011335D01*
X004665Y011660D01*
X006660Y011660D01*
X006660Y011340D01*
X005041Y011340D01*
X004960Y011421D01*
X004846Y011468D01*
X004724Y011468D01*
X004610Y011421D01*
X004524Y011335D01*
X004477Y011221D01*
X004477Y011099D01*
X004517Y011001D02*
X004340Y011001D01*
X004354Y010903D02*
X004606Y010903D01*
X004434Y010804D02*
X006660Y010804D01*
X006660Y010706D02*
X004468Y010706D01*
X004468Y010607D02*
X006660Y010607D01*
X006660Y010509D02*
X004431Y010509D01*
X004346Y010410D02*
X006660Y010410D01*
X006660Y010311D02*
X004181Y010311D01*
X004218Y010213D02*
X006660Y010213D01*
X006660Y010114D02*
X004218Y010114D01*
X004184Y010016D02*
X006660Y010016D01*
X006660Y009917D02*
X004104Y009917D01*
X004178Y009819D02*
X006660Y009819D01*
X006660Y009720D02*
X004218Y009720D01*
X004218Y009622D02*
X006660Y009622D01*
X006660Y009523D02*
X004301Y009523D01*
X004340Y009425D02*
X006660Y009425D01*
X006660Y009326D02*
X004340Y009326D01*
X004340Y009228D02*
X006660Y009228D01*
X006660Y010903D02*
X004964Y010903D01*
X004986Y011395D02*
X006660Y011395D01*
X006660Y011494D02*
X004498Y011494D01*
X004584Y011395D02*
X004400Y011395D01*
X004340Y011297D02*
X004508Y011297D01*
X004597Y011592D02*
X006660Y011592D01*
X004660Y011910D02*
X016160Y011910D01*
X016410Y011660D01*
X016410Y009285D01*
X016285Y009160D01*
X015660Y009160D01*
X015160Y009660D02*
X011910Y009660D01*
X011035Y008785D01*
X008535Y008785D01*
X008160Y008410D01*
X009160Y009160D02*
X010660Y010660D01*
X015160Y010660D01*
X015660Y011160D01*
X015660Y010160D02*
X015160Y009660D01*
X014660Y010160D02*
X011660Y010160D01*
X010910Y009410D01*
X004754Y007566D02*
X004754Y007160D01*
X004754Y007566D02*
X004160Y008160D01*
X004160Y009410D01*
X003910Y009660D01*
X003910Y010160D02*
X003785Y010285D01*
X003785Y012285D01*
X004754Y013254D01*
X004754Y013660D01*
X004660Y011910D02*
X004160Y011410D01*
X004160Y010660D01*
D18*
X004160Y010660D03*
X003910Y010160D03*
X003910Y009660D03*
X004660Y009910D03*
X005160Y010785D03*
X004785Y011160D03*
X005910Y010160D03*
X009160Y009160D03*
X010910Y009410D03*
M02*
