G75*
%MOIN*%
%OFA0B0*%
%FSLAX24Y24*%
%IPPOS*%
%LPD*%
%AMOC8*
5,1,8,0,0,1.08239X$1,22.5*
%
%ADD10C,0.0000*%
%ADD11R,0.0512X0.0630*%
%ADD12R,0.0476X0.0476*%
%ADD13C,0.0476*%
%ADD14C,0.0050*%
%ADD15R,0.0250X0.0500*%
%ADD16R,0.0740X0.0740*%
%ADD17OC8,0.0740*%
%ADD18C,0.0120*%
%ADD19C,0.0357*%
%ADD20C,0.0160*%
%ADD21C,0.0100*%
D10*
X000660Y000660D02*
X000660Y020156D01*
X020030Y020156D01*
X020030Y000660D01*
X000660Y000660D01*
D11*
X003286Y007910D03*
X004034Y007910D03*
X004034Y012660D03*
X003286Y012660D03*
X017286Y012660D03*
X018034Y012660D03*
X018034Y008160D03*
X017286Y008160D03*
D12*
X008160Y008410D03*
D13*
X009160Y008410D03*
X010160Y008410D03*
X011160Y008410D03*
X012160Y008410D03*
X013160Y008410D03*
X013160Y012410D03*
X012160Y012410D03*
X011160Y012410D03*
X010160Y012410D03*
X009160Y012410D03*
X008160Y012410D03*
D14*
X003483Y016444D02*
X003781Y016941D01*
X004126Y017406D01*
X004516Y017836D01*
X004945Y018225D01*
X005411Y018570D01*
X005908Y018868D01*
X006432Y019116D01*
X006977Y019311D01*
X007539Y019452D01*
X008113Y019537D01*
X008691Y019566D01*
X012629Y019566D01*
X013207Y019537D01*
X013781Y019452D01*
X014343Y019311D01*
X014888Y019116D01*
X015412Y018868D01*
X015909Y018570D01*
X016375Y018225D01*
X016804Y017836D01*
X017194Y017406D01*
X017539Y016941D01*
X017837Y016444D01*
X018084Y015920D01*
X018280Y015374D01*
X018421Y014812D01*
X018506Y014239D01*
X018534Y013660D01*
X002786Y013660D01*
X002814Y014239D01*
X002899Y014812D01*
X003040Y015374D01*
X003236Y015920D01*
X003483Y016444D01*
X003473Y016423D02*
X017847Y016423D01*
X017870Y016374D02*
X003450Y016374D01*
X003427Y016326D02*
X017893Y016326D01*
X017916Y016277D02*
X003404Y016277D01*
X003381Y016229D02*
X017939Y016229D01*
X017961Y016180D02*
X003359Y016180D01*
X003336Y016132D02*
X017984Y016132D01*
X018007Y016083D02*
X003313Y016083D01*
X003290Y016035D02*
X018030Y016035D01*
X018053Y015986D02*
X003267Y015986D01*
X003244Y015938D02*
X018076Y015938D01*
X018096Y015889D02*
X003224Y015889D01*
X003207Y015841D02*
X018113Y015841D01*
X018130Y015792D02*
X003190Y015792D01*
X003172Y015744D02*
X018148Y015744D01*
X018165Y015695D02*
X003155Y015695D01*
X003138Y015647D02*
X018182Y015647D01*
X018200Y015598D02*
X003120Y015598D01*
X003103Y015550D02*
X018217Y015550D01*
X018234Y015501D02*
X003086Y015501D01*
X003068Y015453D02*
X018252Y015453D01*
X018269Y015404D02*
X003051Y015404D01*
X003036Y015356D02*
X018284Y015356D01*
X018297Y015307D02*
X003023Y015307D01*
X003011Y015259D02*
X018309Y015259D01*
X018321Y015210D02*
X002999Y015210D01*
X002987Y015162D02*
X018333Y015162D01*
X018345Y015113D02*
X002975Y015113D01*
X002963Y015065D02*
X018357Y015065D01*
X018369Y015016D02*
X002951Y015016D01*
X002938Y014968D02*
X018382Y014968D01*
X018394Y014919D02*
X002926Y014919D01*
X002914Y014871D02*
X018406Y014871D01*
X018418Y014822D02*
X002902Y014822D01*
X002894Y014774D02*
X018426Y014774D01*
X018433Y014725D02*
X002887Y014725D01*
X002879Y014677D02*
X018441Y014677D01*
X018448Y014628D02*
X002872Y014628D01*
X002865Y014580D02*
X018455Y014580D01*
X018462Y014531D02*
X002858Y014531D01*
X002851Y014483D02*
X018469Y014483D01*
X018477Y014434D02*
X002843Y014434D01*
X002836Y014386D02*
X018484Y014386D01*
X018491Y014337D02*
X002829Y014337D01*
X002822Y014289D02*
X018498Y014289D01*
X018505Y014240D02*
X002815Y014240D01*
X002812Y014192D02*
X018508Y014192D01*
X018510Y014143D02*
X002810Y014143D01*
X002807Y014095D02*
X018513Y014095D01*
X018515Y014046D02*
X002805Y014046D01*
X002803Y013998D02*
X018517Y013998D01*
X018520Y013949D02*
X002800Y013949D01*
X002798Y013901D02*
X018522Y013901D01*
X018525Y013852D02*
X002795Y013852D01*
X002793Y013804D02*
X018527Y013804D01*
X018529Y013755D02*
X002791Y013755D01*
X002788Y013707D02*
X018532Y013707D01*
X017820Y016471D02*
X003500Y016471D01*
X003529Y016520D02*
X017791Y016520D01*
X017762Y016568D02*
X003558Y016568D01*
X003587Y016617D02*
X017733Y016617D01*
X017704Y016665D02*
X003616Y016665D01*
X003645Y016714D02*
X017675Y016714D01*
X017646Y016762D02*
X003674Y016762D01*
X003703Y016811D02*
X017617Y016811D01*
X017588Y016859D02*
X003732Y016859D01*
X003761Y016908D02*
X017559Y016908D01*
X017528Y016956D02*
X003792Y016956D01*
X003828Y017005D02*
X017492Y017005D01*
X017456Y017053D02*
X003864Y017053D01*
X003900Y017102D02*
X017420Y017102D01*
X017384Y017150D02*
X003936Y017150D01*
X003972Y017199D02*
X017348Y017199D01*
X017312Y017247D02*
X004008Y017247D01*
X004044Y017296D02*
X017276Y017296D01*
X017240Y017344D02*
X004080Y017344D01*
X004116Y017393D02*
X017204Y017393D01*
X017162Y017441D02*
X004158Y017441D01*
X004202Y017490D02*
X017118Y017490D01*
X017074Y017538D02*
X004246Y017538D01*
X004290Y017587D02*
X017030Y017587D01*
X016986Y017635D02*
X004334Y017635D01*
X004378Y017684D02*
X016942Y017684D01*
X016898Y017732D02*
X004422Y017732D01*
X004466Y017781D02*
X016854Y017781D01*
X016810Y017829D02*
X004510Y017829D01*
X004562Y017878D02*
X016758Y017878D01*
X016705Y017926D02*
X004615Y017926D01*
X004669Y017975D02*
X016651Y017975D01*
X016598Y018023D02*
X004722Y018023D01*
X004776Y018072D02*
X016544Y018072D01*
X016491Y018120D02*
X004829Y018120D01*
X004883Y018169D02*
X016437Y018169D01*
X016384Y018217D02*
X004936Y018217D01*
X005000Y018266D02*
X016320Y018266D01*
X016255Y018314D02*
X005065Y018314D01*
X005131Y018363D02*
X016189Y018363D01*
X016124Y018411D02*
X005196Y018411D01*
X005261Y018460D02*
X016059Y018460D01*
X015993Y018508D02*
X005327Y018508D01*
X005392Y018557D02*
X015928Y018557D01*
X015851Y018605D02*
X005469Y018605D01*
X005550Y018654D02*
X015770Y018654D01*
X015689Y018702D02*
X005631Y018702D01*
X005711Y018751D02*
X015609Y018751D01*
X015528Y018799D02*
X005792Y018799D01*
X005873Y018848D02*
X015447Y018848D01*
X015353Y018896D02*
X005967Y018896D01*
X006069Y018945D02*
X015251Y018945D01*
X015148Y018993D02*
X006172Y018993D01*
X006274Y019042D02*
X015046Y019042D01*
X014943Y019090D02*
X006377Y019090D01*
X006495Y019139D02*
X014825Y019139D01*
X014690Y019187D02*
X006630Y019187D01*
X006766Y019236D02*
X014554Y019236D01*
X014419Y019284D02*
X006901Y019284D01*
X007063Y019333D02*
X014257Y019333D01*
X014064Y019381D02*
X007256Y019381D01*
X007450Y019430D02*
X013870Y019430D01*
X013605Y019478D02*
X007715Y019478D01*
X008042Y019527D02*
X013278Y019527D01*
X018534Y007160D02*
X002786Y007160D01*
X002814Y006581D01*
X002899Y006008D01*
X003040Y005446D01*
X003236Y004900D01*
X003483Y004376D01*
X003781Y003879D01*
X004126Y003414D01*
X004516Y002984D01*
X004945Y002595D01*
X005411Y002250D01*
X005908Y001952D01*
X006432Y001704D01*
X006977Y001509D01*
X007539Y001368D01*
X008113Y001283D01*
X008691Y001254D01*
X012629Y001254D01*
X013207Y001283D01*
X013781Y001368D01*
X014343Y001509D01*
X014888Y001704D01*
X015412Y001952D01*
X015909Y002250D01*
X016375Y002595D01*
X016804Y002984D01*
X017194Y003414D01*
X017539Y003879D01*
X017837Y004376D01*
X018084Y004900D01*
X018280Y005446D01*
X018421Y006008D01*
X018506Y006581D01*
X018534Y007160D01*
X018534Y007159D02*
X002786Y007159D01*
X002788Y007111D02*
X018532Y007111D01*
X018529Y007062D02*
X002791Y007062D01*
X002793Y007014D02*
X018527Y007014D01*
X018524Y006965D02*
X002796Y006965D01*
X002798Y006917D02*
X018522Y006917D01*
X018520Y006868D02*
X002800Y006868D01*
X002803Y006820D02*
X018517Y006820D01*
X018515Y006771D02*
X002805Y006771D01*
X002807Y006723D02*
X018513Y006723D01*
X018510Y006674D02*
X002810Y006674D01*
X002812Y006626D02*
X018508Y006626D01*
X018505Y006577D02*
X002815Y006577D01*
X002822Y006529D02*
X018498Y006529D01*
X018491Y006480D02*
X002829Y006480D01*
X002837Y006432D02*
X018483Y006432D01*
X018476Y006383D02*
X002844Y006383D01*
X002851Y006335D02*
X018469Y006335D01*
X018462Y006286D02*
X002858Y006286D01*
X002865Y006238D02*
X018455Y006238D01*
X018447Y006189D02*
X002873Y006189D01*
X002880Y006141D02*
X018440Y006141D01*
X018433Y006092D02*
X002887Y006092D01*
X002894Y006044D02*
X018426Y006044D01*
X018417Y005995D02*
X002903Y005995D01*
X002915Y005947D02*
X018405Y005947D01*
X018393Y005898D02*
X002927Y005898D01*
X002939Y005850D02*
X018381Y005850D01*
X018369Y005801D02*
X002951Y005801D01*
X002963Y005753D02*
X018357Y005753D01*
X018344Y005704D02*
X002976Y005704D01*
X002988Y005656D02*
X018332Y005656D01*
X018320Y005607D02*
X003000Y005607D01*
X003012Y005559D02*
X018308Y005559D01*
X018296Y005510D02*
X003024Y005510D01*
X003036Y005462D02*
X018284Y005462D01*
X018268Y005413D02*
X003052Y005413D01*
X003069Y005365D02*
X018251Y005365D01*
X018233Y005316D02*
X003087Y005316D01*
X003104Y005268D02*
X018216Y005268D01*
X018199Y005219D02*
X003121Y005219D01*
X003139Y005171D02*
X018181Y005171D01*
X018164Y005122D02*
X003156Y005122D01*
X003173Y005074D02*
X018147Y005074D01*
X018129Y005025D02*
X003191Y005025D01*
X003208Y004977D02*
X018112Y004977D01*
X018094Y004928D02*
X003226Y004928D01*
X003245Y004880D02*
X018075Y004880D01*
X018052Y004831D02*
X003268Y004831D01*
X003291Y004783D02*
X018029Y004783D01*
X018006Y004734D02*
X003314Y004734D01*
X003337Y004686D02*
X017983Y004686D01*
X017960Y004637D02*
X003360Y004637D01*
X003383Y004589D02*
X017937Y004589D01*
X017914Y004540D02*
X003406Y004540D01*
X003429Y004492D02*
X017891Y004492D01*
X017868Y004443D02*
X003452Y004443D01*
X003475Y004395D02*
X017845Y004395D01*
X017819Y004346D02*
X003501Y004346D01*
X003530Y004298D02*
X017790Y004298D01*
X017760Y004249D02*
X003560Y004249D01*
X003589Y004201D02*
X017731Y004201D01*
X017702Y004152D02*
X003618Y004152D01*
X003647Y004104D02*
X017673Y004104D01*
X017644Y004055D02*
X003676Y004055D01*
X003705Y004007D02*
X017615Y004007D01*
X017586Y003958D02*
X003734Y003958D01*
X003763Y003910D02*
X017557Y003910D01*
X017525Y003861D02*
X003795Y003861D01*
X003831Y003813D02*
X017489Y003813D01*
X017453Y003764D02*
X003867Y003764D01*
X003903Y003716D02*
X017417Y003716D01*
X017381Y003667D02*
X003939Y003667D01*
X003974Y003619D02*
X017346Y003619D01*
X017310Y003570D02*
X004010Y003570D01*
X004046Y003522D02*
X017274Y003522D01*
X017238Y003473D02*
X004082Y003473D01*
X004118Y003425D02*
X017202Y003425D01*
X017159Y003376D02*
X004161Y003376D01*
X004204Y003328D02*
X017116Y003328D01*
X017072Y003279D02*
X004248Y003279D01*
X004292Y003231D02*
X017028Y003231D01*
X016984Y003182D02*
X004336Y003182D01*
X004380Y003134D02*
X016940Y003134D01*
X016896Y003085D02*
X004424Y003085D01*
X004468Y003037D02*
X016852Y003037D01*
X016808Y002988D02*
X004512Y002988D01*
X004565Y002940D02*
X016755Y002940D01*
X016702Y002891D02*
X004618Y002891D01*
X004672Y002843D02*
X016648Y002843D01*
X016595Y002794D02*
X004725Y002794D01*
X004779Y002746D02*
X016541Y002746D01*
X016487Y002697D02*
X004833Y002697D01*
X004886Y002649D02*
X016434Y002649D01*
X016380Y002600D02*
X004940Y002600D01*
X005004Y002552D02*
X016316Y002552D01*
X016251Y002503D02*
X005069Y002503D01*
X005134Y002455D02*
X016186Y002455D01*
X016120Y002406D02*
X005200Y002406D01*
X005265Y002358D02*
X016055Y002358D01*
X015989Y002309D02*
X005331Y002309D01*
X005396Y002261D02*
X015924Y002261D01*
X015846Y002212D02*
X005474Y002212D01*
X005554Y002164D02*
X015766Y002164D01*
X015685Y002115D02*
X005635Y002115D01*
X005716Y002067D02*
X015604Y002067D01*
X015523Y002018D02*
X005797Y002018D01*
X005878Y001970D02*
X015442Y001970D01*
X015347Y001921D02*
X005973Y001921D01*
X006075Y001873D02*
X015245Y001873D01*
X015142Y001824D02*
X006178Y001824D01*
X006280Y001776D02*
X015040Y001776D01*
X014937Y001727D02*
X006383Y001727D01*
X006503Y001679D02*
X014817Y001679D01*
X014682Y001630D02*
X006638Y001630D01*
X006774Y001582D02*
X014546Y001582D01*
X014410Y001533D02*
X006910Y001533D01*
X007074Y001485D02*
X014246Y001485D01*
X014052Y001436D02*
X007268Y001436D01*
X007461Y001388D02*
X013859Y001388D01*
X013585Y001339D02*
X007735Y001339D01*
X008062Y001291D02*
X013258Y001291D01*
D15*
X016566Y007160D03*
X016566Y013660D03*
X004754Y013660D03*
X004754Y007160D03*
D16*
X015660Y011160D03*
D17*
X015660Y010160D03*
X015660Y009160D03*
X014660Y009160D03*
X014660Y010160D03*
X014660Y011160D03*
D18*
X015160Y012160D02*
X014660Y012660D01*
X015160Y012160D02*
X015660Y012160D01*
X016660Y011160D01*
X017660Y011160D01*
X018034Y010786D01*
X018034Y008160D01*
X017286Y008160D02*
X016566Y007440D01*
X016566Y007160D01*
X012660Y008160D02*
X012035Y007535D01*
X006910Y007535D01*
X006910Y008160D02*
X007660Y008910D01*
X008660Y008910D01*
X010160Y009160D02*
X010160Y012410D01*
X011660Y010160D02*
X011660Y008160D01*
X011410Y007910D01*
X004660Y007910D01*
X004034Y007910D02*
X004754Y007190D01*
X004754Y007160D01*
X005660Y008160D02*
X006910Y008160D01*
X005660Y008160D02*
X004410Y009410D01*
X004160Y009410D01*
X003660Y009160D02*
X003286Y008786D01*
X003286Y007910D01*
X003660Y009160D02*
X003660Y010660D01*
X004160Y011160D01*
X005660Y011160D01*
X007660Y013160D01*
X015160Y013160D01*
X016660Y011660D01*
X017660Y011660D01*
X018034Y012034D01*
X018034Y012660D01*
X017286Y012660D02*
X016566Y013380D01*
X016566Y013660D01*
X012160Y010160D02*
X012160Y009660D01*
X012660Y009160D01*
X012660Y008160D01*
X011160Y008410D02*
X011160Y009410D01*
X010660Y009910D01*
X004754Y013380D02*
X004754Y013660D01*
X004754Y013380D02*
X004034Y012660D01*
X003286Y012660D02*
X002660Y012660D01*
X002160Y012160D01*
D19*
X002160Y012160D03*
X004160Y011160D03*
X004160Y010160D03*
X004160Y009410D03*
X005160Y010785D03*
X005910Y010160D03*
X004660Y007910D03*
X006910Y007535D03*
X008660Y008910D03*
X010160Y009160D03*
X010660Y009910D03*
X011660Y010160D03*
X012160Y010160D03*
X013910Y008410D03*
X014660Y012660D03*
D20*
X014660Y012160D02*
X014160Y012160D01*
X013410Y012910D01*
X009910Y012910D01*
X009660Y012660D01*
X009660Y008910D01*
X009160Y008410D01*
X013910Y008410D02*
X016160Y008410D01*
X016660Y008910D01*
X016660Y009910D01*
X016410Y010160D01*
X015660Y010160D01*
X015660Y011160D02*
X014660Y012160D01*
D21*
X006660Y011660D02*
X006660Y009160D01*
X004929Y009160D01*
X004489Y009600D01*
X004406Y009600D01*
X004335Y009671D01*
X004221Y009718D01*
X004099Y009718D01*
X003985Y009671D01*
X003899Y009585D01*
X003852Y009471D01*
X003852Y009349D01*
X003899Y009235D01*
X003974Y009160D01*
X003850Y009160D01*
X003850Y010581D01*
X004120Y010852D01*
X004221Y010852D01*
X004335Y010899D01*
X004406Y010970D01*
X005739Y010970D01*
X005850Y011081D01*
X006429Y011660D01*
X006660Y011660D01*
X006660Y011594D02*
X006362Y011594D01*
X006264Y011495D02*
X006660Y011495D01*
X006660Y011397D02*
X006165Y011397D01*
X006067Y011298D02*
X006660Y011298D01*
X006660Y011200D02*
X005968Y011200D01*
X005870Y011101D02*
X006660Y011101D01*
X006660Y011003D02*
X005771Y011003D01*
X006660Y010904D02*
X004340Y010904D01*
X004074Y010806D02*
X006660Y010806D01*
X006660Y010707D02*
X003976Y010707D01*
X003877Y010609D02*
X006660Y010609D01*
X006660Y010510D02*
X003850Y010510D01*
X003850Y010412D02*
X006660Y010412D01*
X006660Y010313D02*
X003850Y010313D01*
X003850Y010215D02*
X006660Y010215D01*
X006660Y010116D02*
X003850Y010116D01*
X003850Y010018D02*
X006660Y010018D01*
X006660Y009919D02*
X003850Y009919D01*
X003850Y009821D02*
X006660Y009821D01*
X006660Y009722D02*
X003850Y009722D01*
X003850Y009624D02*
X003937Y009624D01*
X003874Y009525D02*
X003850Y009525D01*
X003850Y009427D02*
X003852Y009427D01*
X003850Y009328D02*
X003860Y009328D01*
X003850Y009230D02*
X003904Y009230D01*
X004383Y009624D02*
X006660Y009624D01*
X006660Y009525D02*
X004564Y009525D01*
X004662Y009427D02*
X006660Y009427D01*
X006660Y009328D02*
X004761Y009328D01*
X004859Y009230D02*
X006660Y009230D01*
M02*
