G75*
%MOIN*%
%OFA0B0*%
%FSLAX24Y24*%
%IPPOS*%
%LPD*%
%AMOC8*
5,1,8,0,0,1.08239X$1,22.5*
%
%ADD10C,0.0000*%
%ADD11C,0.0040*%
%ADD12C,0.0060*%
%ADD13C,0.0030*%
%ADD14C,0.0100*%
%ADD15C,0.0070*%
%ADD16C,0.0050*%
D10*
X000660Y000660D02*
X000660Y020156D01*
X020030Y020156D01*
X020030Y000660D01*
X000660Y000660D01*
D11*
X005373Y006930D02*
X005680Y006930D01*
X005373Y007237D01*
X005373Y007314D01*
X005449Y007390D01*
X005603Y007390D01*
X005680Y007314D01*
X005833Y007314D02*
X005910Y007390D01*
X006063Y007390D01*
X006140Y007314D01*
X006140Y007007D01*
X006063Y006930D01*
X005910Y006930D01*
X005833Y007007D01*
X007870Y010430D02*
X007870Y010890D01*
X008100Y010660D01*
X007793Y010660D01*
X008254Y010660D02*
X008331Y010583D01*
X008561Y010583D01*
X008561Y010430D02*
X008561Y010890D01*
X008331Y010890D01*
X008254Y010814D01*
X008254Y010660D01*
X008407Y010583D02*
X008254Y010430D01*
X010180Y010680D02*
X010640Y010680D01*
X010640Y010910D01*
X010564Y010987D01*
X010410Y010987D01*
X010333Y010910D01*
X010333Y010680D01*
X010333Y010833D02*
X010180Y010987D01*
X010257Y011140D02*
X010180Y011217D01*
X010180Y011371D01*
X010257Y011447D01*
X010333Y011447D01*
X010410Y011371D01*
X010410Y011294D01*
X010410Y011371D02*
X010487Y011447D01*
X010564Y011447D01*
X010640Y011371D01*
X010640Y011217D01*
X010564Y011140D01*
X012180Y010027D02*
X012180Y009720D01*
X012180Y009873D02*
X012640Y009873D01*
X012487Y009720D01*
X012564Y009566D02*
X012410Y009566D01*
X012333Y009489D01*
X012333Y009259D01*
X012180Y009259D02*
X012640Y009259D01*
X012640Y009489D01*
X012564Y009566D01*
X012333Y009413D02*
X012180Y009566D01*
X012680Y010680D02*
X013140Y010680D01*
X013140Y010910D01*
X013064Y010987D01*
X012910Y010987D01*
X012833Y010910D01*
X012833Y010680D01*
X012833Y010833D02*
X012680Y010987D01*
X012680Y011140D02*
X012987Y011447D01*
X013064Y011447D01*
X013140Y011371D01*
X013140Y011217D01*
X013064Y011140D01*
X012680Y011140D02*
X012680Y011447D01*
X005140Y013632D02*
X005063Y013555D01*
X004910Y013555D01*
X004833Y013632D01*
X004680Y013555D02*
X004373Y013555D01*
X004526Y013555D02*
X004526Y014015D01*
X004680Y013862D01*
X004833Y013939D02*
X004910Y014015D01*
X005063Y014015D01*
X005140Y013939D01*
X005140Y013632D01*
D12*
X006290Y011790D02*
X003670Y011790D01*
X003530Y011650D01*
X003530Y009030D01*
X006290Y009030D01*
X006290Y011790D01*
X003689Y011490D02*
X003691Y011513D01*
X003697Y011536D01*
X003706Y011557D01*
X003719Y011577D01*
X003735Y011594D01*
X003753Y011608D01*
X003773Y011619D01*
X003795Y011627D01*
X003818Y011631D01*
X003842Y011631D01*
X003865Y011627D01*
X003887Y011619D01*
X003907Y011608D01*
X003925Y011594D01*
X003941Y011577D01*
X003954Y011557D01*
X003963Y011536D01*
X003969Y011513D01*
X003971Y011490D01*
X003969Y011467D01*
X003963Y011444D01*
X003954Y011423D01*
X003941Y011403D01*
X003925Y011386D01*
X003907Y011372D01*
X003887Y011361D01*
X003865Y011353D01*
X003842Y011349D01*
X003818Y011349D01*
X003795Y011353D01*
X003773Y011361D01*
X003753Y011372D01*
X003735Y011386D01*
X003719Y011403D01*
X003706Y011423D01*
X003697Y011444D01*
X003691Y011467D01*
X003689Y011490D01*
D13*
X002770Y011317D02*
X002480Y011317D01*
X002480Y011220D02*
X002480Y011414D01*
X002673Y011220D02*
X002770Y011317D01*
X002722Y011119D02*
X002770Y011071D01*
X002770Y010974D01*
X002722Y010926D01*
X002528Y010926D01*
X002480Y010974D01*
X002480Y011071D01*
X002528Y011119D01*
X002480Y010826D02*
X002480Y010729D01*
X002480Y010778D02*
X002770Y010778D01*
X002770Y010826D02*
X002770Y010729D01*
D14*
X006329Y008060D02*
X006329Y006288D01*
X005069Y006288D01*
X005069Y005697D01*
X005069Y004123D02*
X005069Y003532D01*
X006329Y003532D01*
X006329Y001760D01*
X014991Y001760D01*
X014991Y003532D01*
X016251Y003532D01*
X016251Y004123D01*
X016251Y005697D02*
X016251Y006288D01*
X014991Y006288D01*
X014991Y008060D01*
X006329Y008060D01*
X006806Y007410D02*
X006808Y007447D01*
X006814Y007484D01*
X006823Y007519D01*
X006837Y007554D01*
X006853Y007587D01*
X006874Y007618D01*
X006897Y007647D01*
X006923Y007673D01*
X006952Y007696D01*
X006983Y007717D01*
X007016Y007733D01*
X007051Y007747D01*
X007086Y007756D01*
X007123Y007762D01*
X007160Y007764D01*
X007197Y007762D01*
X007234Y007756D01*
X007269Y007747D01*
X007304Y007733D01*
X007337Y007717D01*
X007368Y007696D01*
X007397Y007673D01*
X007423Y007647D01*
X007446Y007618D01*
X007467Y007587D01*
X007483Y007554D01*
X007497Y007519D01*
X007506Y007484D01*
X007512Y007447D01*
X007514Y007410D01*
X007512Y007373D01*
X007506Y007336D01*
X007497Y007301D01*
X007483Y007266D01*
X007467Y007233D01*
X007446Y007202D01*
X007423Y007173D01*
X007397Y007147D01*
X007368Y007124D01*
X007337Y007103D01*
X007304Y007087D01*
X007269Y007073D01*
X007234Y007064D01*
X007197Y007058D01*
X007160Y007056D01*
X007123Y007058D01*
X007086Y007064D01*
X007051Y007073D01*
X007016Y007087D01*
X006983Y007103D01*
X006952Y007124D01*
X006923Y007147D01*
X006897Y007173D01*
X006874Y007202D01*
X006853Y007233D01*
X006837Y007266D01*
X006823Y007301D01*
X006814Y007336D01*
X006808Y007373D01*
X006806Y007410D01*
X008377Y006406D02*
X012943Y006406D01*
X012943Y003414D01*
X008377Y003414D01*
X008377Y006406D01*
X007160Y002660D02*
X007160Y002160D01*
X006806Y002410D02*
X006808Y002447D01*
X006814Y002484D01*
X006823Y002519D01*
X006837Y002554D01*
X006853Y002587D01*
X006874Y002618D01*
X006897Y002647D01*
X006923Y002673D01*
X006952Y002696D01*
X006983Y002717D01*
X007016Y002733D01*
X007051Y002747D01*
X007086Y002756D01*
X007123Y002762D01*
X007160Y002764D01*
X007197Y002762D01*
X007234Y002756D01*
X007269Y002747D01*
X007304Y002733D01*
X007337Y002717D01*
X007368Y002696D01*
X007397Y002673D01*
X007423Y002647D01*
X007446Y002618D01*
X007467Y002587D01*
X007483Y002554D01*
X007497Y002519D01*
X007506Y002484D01*
X007512Y002447D01*
X007514Y002410D01*
X007512Y002373D01*
X007506Y002336D01*
X007497Y002301D01*
X007483Y002266D01*
X007467Y002233D01*
X007446Y002202D01*
X007423Y002173D01*
X007397Y002147D01*
X007368Y002124D01*
X007337Y002103D01*
X007304Y002087D01*
X007269Y002073D01*
X007234Y002064D01*
X007197Y002058D01*
X007160Y002056D01*
X007123Y002058D01*
X007086Y002064D01*
X007051Y002073D01*
X007016Y002087D01*
X006983Y002103D01*
X006952Y002124D01*
X006923Y002147D01*
X006897Y002173D01*
X006874Y002202D01*
X006853Y002233D01*
X006837Y002266D01*
X006823Y002301D01*
X006814Y002336D01*
X006808Y002373D01*
X006806Y002410D01*
X006910Y002410D02*
X007410Y002410D01*
X013910Y007410D02*
X014410Y007410D01*
X013806Y007410D02*
X013808Y007447D01*
X013814Y007484D01*
X013823Y007519D01*
X013837Y007554D01*
X013853Y007587D01*
X013874Y007618D01*
X013897Y007647D01*
X013923Y007673D01*
X013952Y007696D01*
X013983Y007717D01*
X014016Y007733D01*
X014051Y007747D01*
X014086Y007756D01*
X014123Y007762D01*
X014160Y007764D01*
X014197Y007762D01*
X014234Y007756D01*
X014269Y007747D01*
X014304Y007733D01*
X014337Y007717D01*
X014368Y007696D01*
X014397Y007673D01*
X014423Y007647D01*
X014446Y007618D01*
X014467Y007587D01*
X014483Y007554D01*
X014497Y007519D01*
X014506Y007484D01*
X014512Y007447D01*
X014514Y007410D01*
X014512Y007373D01*
X014506Y007336D01*
X014497Y007301D01*
X014483Y007266D01*
X014467Y007233D01*
X014446Y007202D01*
X014423Y007173D01*
X014397Y007147D01*
X014368Y007124D01*
X014337Y007103D01*
X014304Y007087D01*
X014269Y007073D01*
X014234Y007064D01*
X014197Y007058D01*
X014160Y007056D01*
X014123Y007058D01*
X014086Y007064D01*
X014051Y007073D01*
X014016Y007087D01*
X013983Y007103D01*
X013952Y007124D01*
X013923Y007147D01*
X013897Y007173D01*
X013874Y007202D01*
X013853Y007233D01*
X013837Y007266D01*
X013823Y007301D01*
X013814Y007336D01*
X013808Y007373D01*
X013806Y007410D01*
X013806Y002410D02*
X013808Y002447D01*
X013814Y002484D01*
X013823Y002519D01*
X013837Y002554D01*
X013853Y002587D01*
X013874Y002618D01*
X013897Y002647D01*
X013923Y002673D01*
X013952Y002696D01*
X013983Y002717D01*
X014016Y002733D01*
X014051Y002747D01*
X014086Y002756D01*
X014123Y002762D01*
X014160Y002764D01*
X014197Y002762D01*
X014234Y002756D01*
X014269Y002747D01*
X014304Y002733D01*
X014337Y002717D01*
X014368Y002696D01*
X014397Y002673D01*
X014423Y002647D01*
X014446Y002618D01*
X014467Y002587D01*
X014483Y002554D01*
X014497Y002519D01*
X014506Y002484D01*
X014512Y002447D01*
X014514Y002410D01*
X014512Y002373D01*
X014506Y002336D01*
X014497Y002301D01*
X014483Y002266D01*
X014467Y002233D01*
X014446Y002202D01*
X014423Y002173D01*
X014397Y002147D01*
X014368Y002124D01*
X014337Y002103D01*
X014304Y002087D01*
X014269Y002073D01*
X014234Y002064D01*
X014197Y002058D01*
X014160Y002056D01*
X014123Y002058D01*
X014086Y002064D01*
X014051Y002073D01*
X014016Y002087D01*
X013983Y002103D01*
X013952Y002124D01*
X013923Y002147D01*
X013897Y002173D01*
X013874Y002202D01*
X013853Y002233D01*
X013837Y002266D01*
X013823Y002301D01*
X013814Y002336D01*
X013808Y002373D01*
X013806Y002410D01*
D15*
X015564Y006885D02*
X015891Y006885D01*
X015727Y006885D02*
X015727Y007375D01*
X015891Y007212D01*
X016079Y007375D02*
X016406Y007375D01*
X016243Y007375D02*
X016243Y006885D01*
X016758Y006885D02*
X016758Y007375D01*
X016595Y007375D02*
X016922Y007375D01*
X017111Y007212D02*
X017111Y006885D01*
X017111Y007130D02*
X017438Y007130D01*
X017438Y007212D02*
X017274Y007375D01*
X017111Y007212D01*
X017438Y007212D02*
X017438Y006885D01*
X017626Y006967D02*
X017708Y006885D01*
X017953Y006885D01*
X017953Y007375D01*
X017708Y007375D01*
X017626Y007294D01*
X017626Y007212D01*
X017708Y007130D01*
X017953Y007130D01*
X017708Y007130D02*
X017626Y007048D01*
X017626Y006967D01*
D16*
X013885Y010914D02*
X013885Y011064D01*
X013885Y010989D02*
X013510Y010989D01*
X013435Y010914D01*
X013435Y010839D01*
X013510Y010764D01*
X013435Y011225D02*
X013435Y011525D01*
X013435Y011375D02*
X013885Y011375D01*
X013735Y011225D01*
M02*
