%
M48
M72
T01C0.0197
T02C0.0276
T03C0.0400
%
T01
X6910Y7535
X8660Y8910
X10160Y9160
X10660Y9910
X11660Y10160
X12160Y10160
X13910Y8410
X14660Y12660
X5910Y10160
X5160Y10785
X4160Y11160
X4160Y10160
X4160Y9410
X4660Y7910
X2160Y12160
T02
X8160Y12410
X9160Y12410
X10160Y12410
X11160Y12410
X12160Y12410
X13160Y12410
X13160Y8410
X12160Y8410
X11160Y8410
X10160Y8410
X9160Y8410
X8160Y8410
T03
X14660Y9160
X14660Y10160
X14660Y11160
X15660Y11160
X15660Y10160
X15660Y9160
M30
