G75*
%MOIN*%
%OFA0B0*%
%FSLAX24Y24*%
%IPPOS*%
%LPD*%
%AMOC8*
5,1,8,0,0,1.08239X$1,22.5*
%
%ADD10C,0.0000*%
D10*
X002589Y006965D02*
X002589Y013855D01*
X002591Y014007D01*
X002597Y014159D01*
X002607Y014311D01*
X002620Y014462D01*
X002638Y014613D01*
X002659Y014764D01*
X002685Y014914D01*
X002714Y015063D01*
X002747Y015212D01*
X002784Y015359D01*
X002824Y015506D01*
X002869Y015651D01*
X002917Y015795D01*
X002969Y015938D01*
X003024Y016080D01*
X003083Y016220D01*
X003146Y016359D01*
X003212Y016496D01*
X003282Y016631D01*
X003355Y016764D01*
X003432Y016895D01*
X003512Y017025D01*
X003595Y017152D01*
X003681Y017277D01*
X003771Y017400D01*
X003864Y017520D01*
X003960Y017638D01*
X004059Y017754D01*
X004161Y017867D01*
X004265Y017977D01*
X004373Y018085D01*
X004483Y018189D01*
X004596Y018291D01*
X004712Y018390D01*
X004830Y018486D01*
X004950Y018579D01*
X005073Y018669D01*
X005198Y018755D01*
X005325Y018838D01*
X005455Y018918D01*
X005586Y018995D01*
X005719Y019068D01*
X005854Y019138D01*
X005991Y019204D01*
X006130Y019267D01*
X006270Y019326D01*
X006412Y019381D01*
X006555Y019433D01*
X006699Y019481D01*
X006844Y019526D01*
X006991Y019566D01*
X007138Y019603D01*
X007287Y019636D01*
X007436Y019665D01*
X007586Y019691D01*
X007737Y019712D01*
X007888Y019730D01*
X008039Y019743D01*
X008191Y019753D01*
X008343Y019759D01*
X008495Y019761D01*
X008495Y019760D02*
X012825Y019760D01*
X012825Y019761D02*
X012977Y019759D01*
X013129Y019753D01*
X013281Y019743D01*
X013432Y019730D01*
X013583Y019712D01*
X013734Y019691D01*
X013884Y019665D01*
X014033Y019636D01*
X014182Y019603D01*
X014329Y019566D01*
X014476Y019526D01*
X014621Y019481D01*
X014765Y019433D01*
X014908Y019381D01*
X015050Y019326D01*
X015190Y019267D01*
X015329Y019204D01*
X015466Y019138D01*
X015601Y019068D01*
X015734Y018995D01*
X015865Y018918D01*
X015995Y018838D01*
X016122Y018755D01*
X016247Y018669D01*
X016370Y018579D01*
X016490Y018486D01*
X016608Y018390D01*
X016724Y018291D01*
X016837Y018189D01*
X016947Y018085D01*
X017055Y017977D01*
X017159Y017867D01*
X017261Y017754D01*
X017360Y017638D01*
X017456Y017520D01*
X017549Y017400D01*
X017639Y017277D01*
X017725Y017152D01*
X017808Y017025D01*
X017888Y016895D01*
X017965Y016764D01*
X018038Y016631D01*
X018108Y016496D01*
X018174Y016359D01*
X018237Y016220D01*
X018296Y016080D01*
X018351Y015938D01*
X018403Y015795D01*
X018451Y015651D01*
X018496Y015506D01*
X018536Y015359D01*
X018573Y015212D01*
X018606Y015063D01*
X018635Y014914D01*
X018661Y014764D01*
X018682Y014613D01*
X018700Y014462D01*
X018713Y014311D01*
X018723Y014159D01*
X018729Y014007D01*
X018731Y013855D01*
X018731Y006965D01*
X018729Y006813D01*
X018723Y006661D01*
X018713Y006509D01*
X018700Y006358D01*
X018682Y006207D01*
X018661Y006056D01*
X018635Y005906D01*
X018606Y005757D01*
X018573Y005608D01*
X018536Y005461D01*
X018496Y005314D01*
X018451Y005169D01*
X018403Y005025D01*
X018351Y004882D01*
X018296Y004740D01*
X018237Y004600D01*
X018174Y004461D01*
X018108Y004324D01*
X018038Y004189D01*
X017965Y004056D01*
X017888Y003925D01*
X017808Y003795D01*
X017725Y003668D01*
X017639Y003543D01*
X017549Y003420D01*
X017456Y003300D01*
X017360Y003182D01*
X017261Y003066D01*
X017159Y002953D01*
X017055Y002843D01*
X016947Y002735D01*
X016837Y002631D01*
X016724Y002529D01*
X016608Y002430D01*
X016490Y002334D01*
X016370Y002241D01*
X016247Y002151D01*
X016122Y002065D01*
X015995Y001982D01*
X015865Y001902D01*
X015734Y001825D01*
X015601Y001752D01*
X015466Y001682D01*
X015329Y001616D01*
X015190Y001553D01*
X015050Y001494D01*
X014908Y001439D01*
X014765Y001387D01*
X014621Y001339D01*
X014476Y001294D01*
X014329Y001254D01*
X014182Y001217D01*
X014033Y001184D01*
X013884Y001155D01*
X013734Y001129D01*
X013583Y001108D01*
X013432Y001090D01*
X013281Y001077D01*
X013129Y001067D01*
X012977Y001061D01*
X012825Y001059D01*
X012825Y001060D02*
X008495Y001060D01*
X008495Y001059D02*
X008343Y001061D01*
X008191Y001067D01*
X008039Y001077D01*
X007888Y001090D01*
X007737Y001108D01*
X007586Y001129D01*
X007436Y001155D01*
X007287Y001184D01*
X007138Y001217D01*
X006991Y001254D01*
X006844Y001294D01*
X006699Y001339D01*
X006555Y001387D01*
X006412Y001439D01*
X006270Y001494D01*
X006130Y001553D01*
X005991Y001616D01*
X005854Y001682D01*
X005719Y001752D01*
X005586Y001825D01*
X005455Y001902D01*
X005325Y001982D01*
X005198Y002065D01*
X005073Y002151D01*
X004950Y002241D01*
X004830Y002334D01*
X004712Y002430D01*
X004596Y002529D01*
X004483Y002631D01*
X004373Y002735D01*
X004265Y002843D01*
X004161Y002953D01*
X004059Y003066D01*
X003960Y003182D01*
X003864Y003300D01*
X003771Y003420D01*
X003681Y003543D01*
X003595Y003668D01*
X003512Y003795D01*
X003432Y003925D01*
X003355Y004056D01*
X003282Y004189D01*
X003212Y004324D01*
X003146Y004461D01*
X003083Y004600D01*
X003024Y004740D01*
X002969Y004882D01*
X002917Y005025D01*
X002869Y005169D01*
X002824Y005314D01*
X002784Y005461D01*
X002747Y005608D01*
X002714Y005757D01*
X002685Y005906D01*
X002659Y006056D01*
X002638Y006207D01*
X002620Y006358D01*
X002607Y006509D01*
X002597Y006661D01*
X002591Y006813D01*
X002589Y006965D01*
M02*
