%
M48
M72
T01C0.0197
T02C0.0276
T03C0.0400
%
T01
X3910Y9660
X3910Y10160
X4160Y10660
X4660Y9910
X5160Y10785
X5910Y10160
X5910Y13035
X9160Y9160
X10910Y9410
T02
X8160Y12410
X9160Y12410
X10160Y12410
X11160Y12410
X12160Y12410
X13160Y12410
X8160Y8410
X9160Y8410
X10160Y8410
X11160Y8410
X12160Y8410
X13160Y8410
T03
X15660Y11160
X15660Y10160
X15660Y9160
X14660Y9160
X14660Y10160
X14660Y11160
M30
